<svg xmlns="http://www.w3.org/2000/svg" width="35" height="35" viewBox="0 0 35 35">
    <g data-name="Group 26508">
        <path data-name="Rectangle 6646" style="fill:none" d="M0 0h35v35H0z"/>
        <g data-name="Group 25093" transform="translate(-275 -854.5)">
            <g data-name="Path 76738" style="stroke-dasharray:24 24;fill:none">
                <path d="M14.5 0A14.5 14.5 0 1 1 0 14.5 14.5 14.5 0 0 1 14.5 0z" style="stroke:none" transform="translate(278 857)"/>
                <path d="M14.5 0c3.611 0 6.914 1.32 9.452 3.504A14.466 14.466 0 0 1 29 14.5v.033a2.315 2.315 0 0 1 0 .012v.002a10.296 10.296 0 0 1 0 .013V14.573a9.793 9.793 0 0 1 0 .018V14.666l-.001.009v.003a8.442 8.442 0 0 1 0 .011v.048a8.705 8.705 0 0 1-.001.018V14.795l-.001.007V14.838l-.001.004v.034l-.001.009v.033l-.001.004v.025l-.001.006a4.096 4.096 0 0 1 0 .016v.011l-.001.01V15.01l-.001.005v.006a4.585 4.585 0 0 1 0 .02l-.001.005v.021l-.001.006v.005a11.96 11.96 0 0 1-.001.015v.021l-.001.006v.013l-.001.015V15.162l-.001.007v.003a4.649 4.649 0 0 1-.002.035v.002a10.572 10.572 0 0 1 0 .01v.008a.63.63 0 0 1-.003.037v.012l-.003.046c-.007.133-.017.266-.028.398l-2.99-.25c.027-.32.041-.646.041-.97 0-3.072-1.196-5.96-3.368-8.132A11.425 11.425 0 0 0 14.5 3V0zM.457 10.876l2.905.747A11.55 11.55 0 0 0 3 14.5a11.5 11.5 0 0 0 9.569 11.339l-.5 2.958a14.428 14.428 0 0 1-6.383-2.783l-.06-.046a14.388 14.388 0 0 1-.069-.053v-.001a7.867 7.867 0 0 1-.009-.006v-.001a11.28 11.28 0 0 1-.017-.013 23.568 23.568 0 0 1-.05-.04l-.002-.001-.007-.006-.002-.001-.007-.006h-.001l-.007-.007h-.001a11.922 11.922 0 0 1-.05-.04l-.002-.002-.006-.005-.002-.002-.007-.005a1.433 1.433 0 0 1-.008-.006l-.002-.002a14.745 14.745 0 0 1-.04-.033c-.002 0-.002-.001-.003-.002l-.006-.005-.002-.002-.006-.004-.002-.002a12.257 12.257 0 0 1-.006-.005l-.003-.002-.006-.005-.002-.002-.006-.005-.002-.001a12.063 12.063 0 0 1-.018-.015l-.006-.006-.002-.001-.006-.005-.003-.002-.005-.005-.003-.002a6.2 6.2 0 0 1-.005-.005l-.003-.002a6.78 6.78 0 0 1-.014-.011l-.002-.002a9.237 9.237 0 0 1-.007-.006h-.001a8.941 8.941 0 0 1-.008-.008h-.001a7.103 7.103 0 0 1-.007-.006l-.002-.002-.006-.005-.003-.002a5.491 5.491 0 0 1-.005-.005l-.003-.002-.005-.004a4.69 4.69 0 0 1-.016-.014l-.003-.002-.005-.005-.003-.002-.006-.005-.002-.002-.008-.006-.002-.003-.006-.004-.003-.003-.005-.004-.003-.003-.005-.003a3.09 3.09 0 0 1-.003-.004c-.002 0-.003-.002-.004-.003L5.1 25.54l-.004-.004a7.092 7.092 0 0 1-.004-.003l-.004-.004c-.002 0-.003-.002-.004-.003l-.004-.003-.004-.004a4.84 4.84 0 0 0-.003-.002l-.008-.007a7.748 7.748 0 0 1-.004-.004l-.004-.003-.004-.003-.004-.004a5.43 5.43 0 0 1-.004-.003l-.004-.004-.003-.003-.005-.003-.003-.004c-.002 0-.003-.002-.005-.003l-.003-.003-.004-.004-.003-.003c-.002 0-.004-.003-.005-.004l-.003-.002a17.587 17.587 0 0 1-.018-.016l-.002-.001a11.242 11.242 0 0 1-.005-.005l-.003-.002-.004-.004-.003-.003a4.995 4.995 0 0 1-.005-.004l-.003-.003-.005-.004-.003-.002a12.228 12.228 0 0 1-.005-.005l-.002-.002-.005-.004a1.424 1.424 0 0 0-.03-.026 15.624 15.624 0 0 1-.006-.006l-.002-.001-.005-.005-.002-.002-.006-.005-.002-.002-.005-.005-.002-.001a7.368 7.368 0 0 1-.006-.005l-.002-.002a19.937 19.937 0 0 1-.043-.038l-.006-.005-.001-.002-.006-.005-.001-.001a18.345 18.345 0 0 1-.007-.006l-.007-.007a10.852 10.852 0 0 1-.05-.045h-.001A14.492 14.492 0 0 1 .979 19.75v-.001l-.003-.01-.032-.083a16.772 16.772 0 0 1-.004-.009l-.003-.01a8.212 8.212 0 0 1-.028-.073v-.001a7.932 7.932 0 0 1-.004-.009l-.003-.01-.028-.074a11.731 11.731 0 0 1-.007-.018v-.001a14.24 14.24 0 0 1-.02-.056l-.003-.009-.003-.009v-.001l-.004-.009a14.876 14.876 0 0 1-.023-.065v-.001a10.333 10.333 0 0 1-.007-.018v-.001a6.13 6.13 0 0 1-.003-.009l-.003-.01-.016-.046-.004-.009v-.001l-.003-.008v-.002l-.003-.008v-.001l-.003-.009a14.636 14.636 0 0 1-.02-.056l-.002-.01H.749l-.003-.009v-.002l-.003-.007v-.002l-.003-.008v-.001l-.016-.046v-.001l-.003-.008v-.002l-.003-.008v-.002l-.003-.007v-.002L.711 19a.815.815 0 0 1-.003-.01l-.016-.047a10.555 10.555 0 0 1-.003-.01c0-.003-.002-.006-.003-.008v-.003l-.003-.007v-.002l-.003-.008v-.002a41.5 41.5 0 0 0-.018-.057L.66 18.84v-.002l-.003-.008v-.002l-.003-.008a.213.213 0 0 1-.003-.01l-.015-.047a6.15 6.15 0 0 1-.005-.018v-.003c-.002-.002-.002-.005-.003-.007v-.003c-.002-.002-.002-.005-.003-.007v-.002l-.003-.008v-.001a14.96 14.96 0 0 1-.012-.037l-.002-.009v-.002c-.002-.002-.002-.005-.003-.008v-.002c-.002-.002-.002-.005-.003-.007v-.003C.6 18.643.6 18.64.598 18.638a1.183 1.183 0 0 1-.003-.01v-.002l-.003-.008v-.001a14.43 14.43 0 0 1-.01-.036l-.001-.002-.003-.008v-.002l-.002-.007-.001-.003-.002-.007-.001-.003-.002-.007-.001-.003-.002-.007v-.003c-.002-.002-.002-.005-.003-.007v-.001a14.421 14.421 0 0 1-.01-.036l-.001-.002-.002-.008-.001-.002-.002-.008-.001-.003-.002-.007v-.003l-.003-.007v-.003l-.003-.007v-.002a15.193 15.193 0 0 1-.01-.035v-.002l-.003-.007v-.003a16.633 16.633 0 0 1-.003-.01l-.002-.007-.001-.003-.002-.007v-.003a7.46 7.46 0 0 1-.003-.01l-.003-.008v-.001a13.261 13.261 0 0 1-.01-.036v-.002L.5 18.292a1.377 1.377 0 0 0-.003-.01v-.003a17.286 17.286 0 0 1-.005-.017l-.001-.003-.002-.007v-.003l-.003-.008v-.001l-.007-.027-.003-.009v-.002l-.002-.007v-.003l-.003-.007v-.003l-.002-.007-.001-.003-.002-.008a1.666 1.666 0 0 1-.003-.01v-.002a14.098 14.098 0 0 1-.01-.036v-.001a10.666 10.666 0 0 1-.002-.01l-.002-.008-.001-.003-.002-.007v-.003l-.002-.007-.001-.004-.002-.006v-.003l-.003-.007v-.003a14.655 14.655 0 0 1-.01-.037l-.001-.007-.001-.003L.425 18v-.004a8.66 8.66 0 0 1-.005-.017v-.003l-.002-.007-.001-.003a7.266 7.266 0 0 1-.009-.036l-.002-.008v-.003l-.002-.007-.001-.003-.002-.007v-.004l-.002-.006a3.748 3.748 0 0 1-.003-.01v-.004l-.002-.007v-.003a13.028 13.028 0 0 1-.007-.026l-.002-.007v-.004l-.002-.006-.001-.004-.001-.007-.001-.004-.002-.006V17.8l-.002-.006-.001-.005-.002-.006v-.004l-.002-.006v-.004l-.002-.006-.001-.003-.003-.015-.001-.002-.002-.007v-.003l-.002-.007v-.004l-.002-.006-.001-.004-.001-.006-.001-.005-.002-.006v-.004l-.002-.006-.001-.004-.001-.007-.001-.002a15.16 15.16 0 0 1-.006-.025v-.003a8.5 8.5 0 0 1-.002-.007v-.003l-.002-.006v-.005l-.002-.006-.001-.004a5.616 5.616 0 0 1-.002-.01l-.002-.007v-.003l-.002-.007v-.004l-.002-.006v-.003a13.63 13.63 0 0 1-.006-.024v-.004l-.002-.006v-.004l-.002-.006-.001-.005-.001-.006-.001-.004-.002-.006v-.004l-.002-.007v-.004l-.002-.006v-.004a7.68 7.68 0 0 1-.006-.024v-.003a32.488 32.488 0 0 1-.008-.037v-.004l-.002-.006a4.197 4.197 0 0 1-.002-.01l-.001-.005-.001-.006-.001-.004a13.27 13.27 0 0 1-.005-.023v-.004l-.002-.006v-.004l-.002-.007v-.004l-.002-.006v-.004l-.002-.006v-.005a29.876 29.876 0 0 0-.003-.01l-.001-.006-.001-.005-.001-.006-.001-.005-.002-.011-.001-.004-.001-.006-.001-.005-.001-.006-.001-.004-.001-.006-.001-.005-.001-.006-.001-.004-.001-.006-.001-.005-.001-.005-.001-.005-.001-.006-.001-.005-.001-.006a4.308 4.308 0 0 0-.003-.015l-.001-.005-.001-.005-.001-.006-.001-.005-.001-.005-.001-.005-.001-.006v-.005l-.002-.006v-.005l-.002-.005v-.005l-.002-.006V17.1l-.002-.005v-.006l-.002-.005c0-.004 0-.007-.002-.01v-.005l-.001-.006-.001-.005-.001-.005-.001-.005-.001-.006-.001-.005v-.005l-.002-.005v-.006l-.002-.005v-.006l-.002-.005V17l-.001-.005a9.773 9.773 0 0 1-.004-.021v-.006l-.002-.005v-.005l-.002-.006v-.005l-.001-.005-.001-.005-.001-.006-.001-.005L.2 16.92v-.004l-.002-.006v-.005l-.002-.006v-.004a12.91 12.91 0 0 1-.003-.016l-.001-.006v-.005l-.002-.006a12.755 12.755 0 0 1-.003-.02l-.001-.006v-.005l-.002-.006v-.005l-.001-.006-.001-.005a6.816 6.816 0 0 1-.004-.02v-.006l-.001-.005-.001-.006-.001-.005v-.005l-.002-.006v-.005l-.001-.005-.001-.006v-.005L.17 16.73a3.88 3.88 0 0 1-.002-.016l-.001-.006v-.004l-.003-.012v-.005l-.001-.005v-.005L.16 16.67v-.005L.16 16.66l-.001-.005v-.005l-.002-.005v-.006l-.001-.005-.001-.006v-.005l-.002-.005v-.006l-.001-.005L.15 16.6.15 16.59l-.001-.006v-.005l-.002-.006v-.005l-.001-.005-.001-.006v-.005l-.002-.005v-.006l-.001-.005v-.005l-.002-.006v-.005l-.001-.006v-.005a3.917 3.917 0 0 1-.003-.016v-.003l-.001-.007-.001-.005v-.006l-.002-.005v-.006l-.001-.005v-.006l-.002-.005a5.544 5.544 0 0 1-.002-.016v-.005l-.001-.006v-.005l-.002-.007v-.004l-.002-.01v-.005l-.001-.006v-.005L.12 16.37l-.001-.005v-.006l-.001-.005-.001-.005v-.006l-.002-.005v-.005a3.062 3.062 0 0 1-.002-.011v-.011l-.002-.007v-.008a7.483 7.483 0 0 1-.002-.011v-.006l-.001-.005-.001-.006v-.005l-.001-.005-.001-.006v-.005l-.001-.006-.001-.005v-.005l-.001-.006L.1 16.22v-.006L.1 16.21l-.001-.01-.001-.005v-.006l-.001-.005-.001-.006v-.005l-.001-.006v-.005l-.001-.006-.001-.005v-.006l-.001-.005v-.006L.09 16.13l-.001-.006v-.004l-.001-.007v-.004a9.291 9.291 0 0 1-.003-.015v-.012l-.001-.005-.001-.006v-.005l-.001-.006v-.005l-.001-.005v-.006l-.001-.005-.001-.006v-.005l-.001-.006v-.005l-.001-.006L.077 16v-.006l-.001-.005-.001-.006v-.006l-.001-.005v-.005l-.001-.006v-.005l-.001-.006v-.005L.07 15.94v-.005L.07 15.93v-.005a8.562 8.562 0 0 1-.002-.01l-.001-.011v-.004l-.001-.007v-.005l-.001-.006v-.005l-.001-.006v-.005l-.001-.006v-.005l-.001-.006v-.005l-.001-.006v-.004l-.001-.007v-.004l-.001-.008v-.003L.056 15.8v-.015l-.001-.007v-.005l-.001-.006v-.005a7.1 7.1 0 0 1-.002-.01v-.011l-.001-.007v-.005l-.001-.007v-.003l-.001-.01v-.003l-.001-.01v-.003l-.001-.007v-.005l-.001-.006v-.005l-.001-.006v-.011l-.001-.005v-.006l-.001-.005v-.011l-.001-.007v-.004l-.002-.01v-.016l-.001-.007v-.004l-.001-.007v-.011l-.001-.004v-.011l-.001-.007v-.004l-.001-.007v-.004a14.873 14.873 0 0 1-.002-.022v-.011l-.001-.004v-.012l-.001-.006v-.011l-.001-.005v-.006L.03 15.44v-.011a8.374 8.374 0 0 0-.001-.01v-.01l-.001-.004v-.009l-.001-.004v-.012l-.001-.006v-.011l-.001-.005v-.011l-.001-.006v-.005a8.46 8.46 0 0 1-.001-.022l-.001-.01a.715.715 0 0 1 0-.016l-.001-.007v-.004a7.225 7.225 0 0 1-.001-.012v-.006a3.902 3.902 0 0 0-.001-.01v-.017l-.001-.006v-.016l-.001-.01v-.012l-.001-.004v-.018l-.001-.005v-.017l-.001-.005v-.018l-.001-.004v-.012l-.001-.01v-.022l-.001-.005V15.047L.01 15.04v-.015l-.001-.008v-.029l-.001-.008v-.022l-.001-.005v-.011a7.91 7.91 0 0 1 0-.01v-.008l-.001-.004v-.033a3.558 3.558 0 0 0-.001-.011v-.011a3.925 3.925 0 0 1 0-.012v-.004l-.001-.007v-.011a2.8 2.8 0 0 1 0-.027l-.001-.01v-.046l-.001-.004v-.011a8.863 8.863 0 0 1 0-.023v-.033L0 14.673v-.053a2.776 2.776 0 0 0 0-.013v-.002a10.856 10.856 0 0 1 0-.014v-.008a2.952 2.952 0 0 1 0-.011v-.016a7.129 7.129 0 0 1 0-.011L0 14.538v-.132a9.122 9.122 0 0 1 0-.034V14.335a14.84 14.84 0 0 1 .001-.035v-.01a.56.56 0 0 0 .001-.035V14.208l.001-.01V14.158a8.77 8.77 0 0 1 .001-.01v-.025l.001-.008v-.003a16.161 16.161 0 0 1 0-.032l.001-.003v-.023l.001-.01V14.02l.001-.01v-.023l.001-.003a13.107 13.107 0 0 1 0-.01V13.96l.001-.009v-.014l.001-.009v-.023l.001-.003v-.02l.001-.003v-.02l.001-.003V13.836l.001-.003v-.011l.001-.009V13.8l.001-.008v-.016l.001-.007v-.012l.001-.005v-.018l.001-.004v-.013l.001-.006v-.012l.001-.004v-.012l.001-.007v-.012l.001-.005v-.01l.001-.008v-.01l.001-.006v-.011l.001-.008v-.01l.001-.005v-.012l.001-.006v-.007l.001-.005V13.547l.001-.004v-.01l.001-.008v-.005l.001-.006v-.012l.001-.005v-.007l.001-.005v-.011l.001-.007v-.01l.001-.007v-.005l.001-.005v-.006l.001-.007v-.005l.001-.007v-.011a2.92 2.92 0 0 1 .002-.012v-.014l.001-.009v-.004l.001-.008v-.005l.001-.005v-.004l.001-.009v-.004a5.393 5.393 0 0 0 .001-.01l.001-.009a2.144 2.144 0 0 1 .001-.015v-.007l.001-.003v-.01l.001-.003v-.006a1.204 1.204 0 0 0 .002-.013v-.003l.001-.012v-.008l.001-.002v-.01l.001-.004v-.008a22.167 22.167 0 0 1 .004-.033v-.002l.001-.012v-.008a13.354 13.354 0 0 1 .004-.035v-.003l.001-.01V13.1l.001-.006v-.001a13.856 13.856 0 0 1 .004-.036l.001-.013.002-.021v-.002l.002-.02.002-.014.002-.021v-.002l.002-.02v-.001l.002-.014.002-.02v-.002l.003-.02v-.001l.001-.013.003-.022.006-.057.003-.021.001-.015.003-.02v-.001l.003-.021.004-.035v-.001l.007-.056.003-.022.012-.092.05-.337c.013-.075.025-.15.039-.224l.01-.056c0-.007.002-.014.003-.02v-.001l.007-.035.004-.02v-.001l.006-.034v-.001l.004-.02.007-.034v-.002a16.2 16.2 0 0 1 .007-.033l.004-.02v-.002l.004-.02v-.001l.003-.013.004-.02v-.002l.004-.02.003-.013a13.024 13.024 0 0 1 .009-.043l.002-.011v-.002l.002-.006v-.002l.002-.011a1.177 1.177 0 0 1 .005-.022v-.002l.003-.01v-.002a6.785 6.785 0 0 1 .004-.019v-.003l.003-.01v-.003l.001-.005.001-.004.002-.008v-.004l.002-.005v-.004l.003-.009v-.003l.002-.008.001-.005.001-.005.001-.004.002-.007.001-.005.001-.005.001-.006.002-.006v-.005a4.1 4.1 0 0 0 .003-.012l.001-.004.002-.006v-.005l.002-.007a2.683 2.683 0 0 1 .003-.01v-.006l.002-.005.001-.004.002-.008v-.004l.002-.006.001-.005.002-.006v-.005l.002-.006.001-.006.002-.005v-.004l.002-.008a3.857 3.857 0 0 0 .004-.014l.001-.008.001-.003.002-.009.001-.003.002-.006a2.235 2.235 0 0 1 .003-.015l.002-.008v-.002l.002-.008.001-.004.002-.008v-.003l.003-.007v-.003l.002-.009a1.627 1.627 0 0 0 .003-.01v-.002a13.003 13.003 0 0 1 .003-.012l.002-.01v-.001l.003-.008v-.003l.003-.009a1.936 1.936 0 0 0 .002-.01v-.002l.003-.01v-.002l.003-.009v-.002l.002-.008v-.002a7.67 7.67 0 0 1 .006-.02v-.001l.002-.01v-.002a18.68 18.68 0 0 1 .004-.01l.002-.01v-.001l.003-.01v-.001a12.216 12.216 0 0 1 .006-.022l.002-.01a10.111 10.111 0 0 1 .006-.022c0-.004.002-.008.003-.011z" style="fill:#07a8e4;stroke:none" transform="translate(278 857)"/>
            </g>
            <circle data-name="Ellipse 2019" cx="5.5" cy="5.5" r="5.5" transform="translate(287 866)" style="fill:#07a8e4"/>
        </g>
    </g>
</svg>
