<svg data-name="Group 26405" xmlns="http://www.w3.org/2000/svg" width="28" height="28" viewBox="0 0 28 28">
    <g data-name="Group 21622">
        <g data-name="Group 21623">
            <path data-name="Path 51949" d="m18393.838-4348.091 1.072-7.7a1.791 1.791 0 0 1 1.813-1.409c1.51.05 8.484 0 8.484 0s1.813-.151 2.164 1.409 1.459 12.18 1.459 12.18.605 2.517-1.961 2.567-11.607 0-11.607 0a1.789 1.789 0 0 1-1.912-1.963c.15-2.014.488-5.084.488-5.084z" transform="translate(-18386.918 4365.294)" style="stroke:#707070;stroke-width:2px;fill:#707070"/>
            <path data-name="Path 51950" d="M18410.713-4365.424v-4.661a3.188 3.188 0 0 1 3.346-2.767 2.858 2.858 0 0 1 3.057 2.767v4.661" transform="translate(-18399.717 4375.227)" style="stroke-linecap:round;stroke-linejoin:round;stroke:#707070;stroke-width:2px;fill:none"/>
        </g>
    </g>
    <path data-name="Path 51953" d="M0 0h28v28H0z" style="fill:none"/>
</svg>
