<svg xmlns="http://www.w3.org/2000/svg" width="12.005" height="12" viewBox="0 0 12.005 12">
    <path data-name="Rectangle 7138" style="fill:none" d="M0 0h12v12H0z"/>
    <path data-name="Path 77698" d="M4.251 10h2a1 1 0 1 1-2 0zm-1-1a.5.5 0 0 0 .5.5h3a.5.5 0 0 0 0-1h-3a.5.5 0 0 0-.5.5zM9 4.752A3.769 3.769 0 0 1 7.117 8H3.386A3.75 3.75 0 1 1 9 4.752zm2.436-1.065L10.754 4l.685.315.315.685.315-.685.686-.315-.685-.315L11.754 3zM10.254 3l.47-1.03 1.03-.47-1.03-.47-.47-1.03-.47 1.03-1.03.47 1.03.47z" transform="translate(-.75)" style="fill:#06c"/>
</svg>
