<svg xmlns="http://www.w3.org/2000/svg" width="35.773" height="33.085" viewBox="0 0 35.773 33.085">
    <path data-name="Path 51962" d="M21.675 26.895H18.1a1.819 1.819 0 0 1-1.789-1.838H3.807v7.352a3.638 3.638 0 0 0 3.577 3.676h25.023a3.638 3.638 0 0 0 3.577-3.676v-7.352h-12.52a1.819 1.819 0 0 1-1.789 1.838zM34.2 10.352h-7.159a7.157 7.157 0 1 0-14.309 0H5.577A3.638 3.638 0 0 0 2 14.028v5.514a3.615 3.615 0 0 0 3.577 3.676h10.732v-1.837a1.819 1.819 0 0 1 1.791-1.838h3.577a1.819 1.819 0 0 1 1.789 1.838v1.838H34.2a3.638 3.638 0 0 0 3.577-3.676v-5.515a3.638 3.638 0 0 0-3.577-3.676zm-17.887 0a3.579 3.579 0 1 1 7.155 0h-7.159z" transform="translate(-2 -3)" style="fill:#9000e2"/>
</svg>
