<svg xmlns="http://www.w3.org/2000/svg" width="24" height="24" viewBox="0 0 24 24">
    <path data-name="Path 51974" d="M0 0h24v24H0z" style="fill:none"/>
    <path data-name="Path 51975" d="M10.4 2.616a5.526 5.526 0 0 0-6.305-1.048l3.077 3.068a.84.84 0 0 1 0 1.192L5.824 7.171a.831.831 0 0 1-1.2 0L1.551 4.1a5.5 5.5 0 0 0 6.9 7.53l6.749 6.731a2.221 2.221 0 0 0 3.145-3.135l-6.715-6.7a5.487 5.487 0 0 0-1.23-5.91z" transform="translate(1.998 1.986)" style="stroke:#ff6000;stroke-linecap:round;stroke-linejoin:round;fill:none"/>
</svg>
