<svg xmlns="http://www.w3.org/2000/svg" width="13.197" height="13.197" viewBox="0 0 13.197 13.197">
    <g style="opacity:.3">
        <path data-name="Path 51974" d="M0 0h13.2v13.2H0z" style="fill:none"/>
        <path data-name="Path 51975" d="M6.171 1.895A3.038 3.038 0 0 0 2.7 1.319l1.694 1.687a.462.462 0 0 1 0 .655l-.741.739A.457.457 0 0 1 3 4.4L1.3 2.713a3.022 3.022 0 0 0 3.8 4.14l3.711 3.7a1.221 1.221 0 0 0 1.73-1.724L6.846 5.143a3.017 3.017 0 0 0-.675-3.248z" transform="translate(.648 .636)" style="fill:#26205d"/>
    </g>
</svg>
