<svg xmlns="http://www.w3.org/2000/svg" width="24" height="24" viewBox="0 0 24 24">
    <defs>
        <style>
            .cls-4{fill:none;stroke:#ff6000;stroke-linecap:round;stroke-linejoin:round;stroke-width:.6px}
        </style>
    </defs>
    <g id="calculate_white_24dp" transform="translate(0 .004)">
        <g id="Group_19696" data-name="Group 19696" transform="translate(0 -.004)">
            <path id="Rectangle_5600" data-name="Rectangle 5600" style="fill:none" d="M0 0h24v24H0z"/>
        </g>
        <g id="Group_19697" data-name="Group 19697" transform="translate(3.1 3.101)" style="isolation:isolate">
            <path id="Path_19363" data-name="Path 19363" d="M19.145 3H5.018A2.024 2.024 0 0 0 3 5.018v14.127a2.024 2.024 0 0 0 2.018 2.018h14.127a2.024 2.024 0 0 0 2.018-2.018V5.018A2.024 2.024 0 0 0 19.145 3z" transform="translate(-3 -3)" style="stroke:#ff6000;stroke-linecap:round;stroke-linejoin:round;fill:none"/>
            <path id="Icon_awesome-arrow-right" data-name="Icon awesome-arrow-right" class="cls-4" d="m3.089 3.122.36-.36a.388.388 0 0 1 .55 0l3.152 3.15a.388.388 0 0 1 0 .55L4 9.614a.388.388 0 0 1-.55 0l-.36-.36A.39.39 0 0 1 3.1 8.7l1.95-1.863H.389A.388.388 0 0 1 0 6.447v-.518a.388.388 0 0 1 .389-.389H5.05L3.1 3.678a.387.387 0 0 1-.011-.556z" transform="translate(2.947 -.107)"/>
            <path id="Icon_awesome-arrow-right-2" data-name="Icon awesome-arrow-right" class="cls-4" d="m3.089 3.122.36-.36a.388.388 0 0 1 .55 0l3.152 3.15a.388.388 0 0 1 0 .55L4 9.614a.388.388 0 0 1-.55 0l-.36-.36A.39.39 0 0 1 3.1 8.7l1.95-1.863H.389A.388.388 0 0 1 0 6.447v-.518a.388.388 0 0 1 .389-.389H5.05L3.1 3.678a.387.387 0 0 1-.011-.556z" transform="rotate(180 7.606 9.134)"/>
        </g>
    </g>
</svg>
