<svg xmlns="http://www.w3.org/2000/svg" width="36" height="35.995" viewBox="0 0 36 35.995">
    <path data-name="Path 76942" d="M11.8 30.8a3.6 3.6 0 1 0 3.6 3.6 3.594 3.594 0 0 0-3.6-3.6zM1 3.8a1.8 1.8 0 0 0 1.8 1.8h1.8l6.478 13.66-2.431 4.391A3.606 3.606 0 0 0 11.8 29h19.789a1.8 1.8 0 0 0 0-3.6H11.8l1.979-3.6H27.18a3.581 3.581 0 0 0 3.149-1.854l6.442-11.68A1.793 1.793 0 0 0 35.205 5.6H8.575L7.37 3.026A1.786 1.786 0 0 0 5.75 2H2.8A1.8 1.8 0 0 0 1 3.8zm28.789 27a3.6 3.6 0 1 0 3.6 3.6 3.594 3.594 0 0 0-3.6-3.6z" transform="translate(-1 -2)" style="fill:#1a5fdb"/>
</svg>
