<svg xmlns="http://www.w3.org/2000/svg" width="24" height="24" viewBox="0 0 24 24">
    <path data-name="Path 51978" d="M0 0h24v24H0z" style="fill:none"/>
    <path data-name="Path 51979" d="M8.318 15.9 4.655 12l3.663-3.9a1.029 1.029 0 0 0 0-1.4A.885.885 0 0 0 7 6.7l-4.308 4.59a1.042 1.042 0 0 0 0 1.41L7 17.3a.885.885 0 0 0 1.315 0 1.029 1.029 0 0 0 0-1.4zm6.2 0L18.18 12l-3.663-3.9a1.029 1.029 0 0 1 0-1.4.885.885 0 0 1 1.315 0l4.311 4.59a1.042 1.042 0 0 1 0 1.41l-4.311 4.6a.885.885 0 0 1-1.315 0 1.029 1.029 0 0 1 0-1.4z" transform="translate(.582)" style="stroke:#ff6000;stroke-linecap:round;stroke-linejoin:round;fill:none"/>
</svg>
