<svg data-name="description_black_24dp (1)" xmlns="http://www.w3.org/2000/svg" width="24" height="24" viewBox="0 0 24 24">
    <path data-name="Path 51968" d="M0 0h24v24H0z" style="fill:none"/>
    <path data-name="Path 51969" d="M13.928 2.531A1.921 1.921 0 0 0 12.6 2H5.875A1.844 1.844 0 0 0 4 3.8v14.4A1.836 1.836 0 0 0 5.866 20h11.259A1.844 1.844 0 0 0 19 18.2V8.147a1.735 1.735 0 0 0-.553-1.269zm.385 13.869H8.687a.9.9 0 1 1 0-1.8h5.625a.9.9 0 1 1 0 1.8zm0-3.6H8.687a.9.9 0 1 1 0-1.8h5.625a.9.9 0 1 1 0 1.8zm-1.875-5.4V3.35l5.156 4.95h-4.219a.922.922 0 0 1-.937-.9z" transform="translate(.5 1)" style="stroke:#ff6000;stroke-linecap:round;stroke-linejoin:round;fill:none"/>
</svg>
