<svg xmlns="http://www.w3.org/2000/svg" width="24" height="27.428" viewBox="0 0 24 27.428">
    <path data-name="Icon awesome-discord" d="M15.922 13.029a1.4 1.4 0 1 1-1.4-1.522 1.461 1.461 0 0 1 1.4 1.522zm-6.4-1.522a1.528 1.528 0 0 0 0 3.045 1.461 1.461 0 0 0 1.4-1.522 1.452 1.452 0 0 0-1.404-1.524zM24 2.825v24.6c-3.455-3.053-2.35-2.043-6.363-5.774l.727 2.537H2.811A2.818 2.818 0 0 1 0 21.367V2.825A2.818 2.818 0 0 1 2.811 0h18.378A2.818 2.818 0 0 1 24 2.825zm-3.909 13a18.366 18.366 0 0 0-1.975-8 6.782 6.782 0 0 0-3.854-1.44l-.192.219a9.127 9.127 0 0 1 3.415 1.742 11.653 11.653 0 0 0-10.245-.4c-.507.233-.809.4-.809.4a9.252 9.252 0 0 1 3.607-1.8L9.9 6.391a6.782 6.782 0 0 0-3.854 1.44 18.366 18.366 0 0 0-1.975 8 4.972 4.972 0 0 0 4.183 2.085s.507-.617.919-1.138a4.265 4.265 0 0 1-2.4-1.618c.2.141.534.324.562.343a10 10 0 0 0 8.558.48 7.848 7.848 0 0 0 1.577-.809 4.328 4.328 0 0 1-2.48 1.626c.411.521.905 1.111.905 1.111a5.013 5.013 0 0 0 4.196-2.085z" style="fill:#666"/>
</svg>
