<svg xmlns="http://www.w3.org/2000/svg" width="24" height="24" viewBox="0 0 24 24">
    <path data-name="Path 51970" d="M0 0h24v24H0z" style="fill:none"/>
    <path data-name="Path 51971" d="M18.567 6.013h-.9v7.118a.9.9 0 0 1-.9.89l-9.793-.064v.89a1.79 1.79 0 0 0 1.79 1.78h7.645L20 20.186V7.729c0-.979-.448-1.716-1.433-1.716zm-3.139 3.995V3.78A1.79 1.79 0 0 0 13.638 2H3.79A1.79 1.79 0 0 0 2 3.78v11.567l3.581-3.559h8.057a1.79 1.79 0 0 0 1.791-1.78z" transform="translate(1 .907)" style="stroke:#ff6000;stroke-linecap:round;stroke-linejoin:round;fill:none"/>
</svg>
