<svg id="go-logo-blue" xmlns="http://www.w3.org/2000/svg" width="40" height="14.944" viewBox="0 0 40 14.944">
    <defs>
        <style>
            .cls-1{fill:#00acd7;fill-rule:evenodd}
        </style>
    </defs>
    <path id="Path_76758" data-name="Path 76758" class="cls-1" d="M15.883 21.166c-.083 0-.1-.041-.062-.1l.435-.559a.3.3 0 0 1 .228-.1h7.386c.083 0 .1.062.062.124l-.352.538a.315.315 0 0 1-.207.124z" transform="translate(-12.675 -16.608)"/>
    <path id="Path_76759" data-name="Path 76759" class="cls-1" d="M.783 30.366c-.083 0-.1-.041-.062-.1l.435-.559a.3.3 0 0 1 .228-.1h9.436a.1.1 0 0 1 .1.124l-.166.5a.181.181 0 0 1-.186.124z" transform="translate(-.7 -24.022)"/>
    <path id="Path_76760" data-name="Path 76760" class="cls-1" d="M24.983 39.566c-.083 0-.1-.062-.062-.124l.29-.517a.274.274 0 0 1 .207-.124h4.139c.083 0 .124.062.124.145l-.041.5a.155.155 0 0 1-.145.145z" transform="translate(-19.892 -31.436)"/>
    <g id="Group_25196" data-name="Group 25196" transform="translate(11.281)">
        <path id="Path_76761" data-name="Path 76761" class="cls-1" d="M15.5 5.039c-1.3.312-2.193.545-3.476.857-.31.078-.331.1-.6-.195a2.745 2.745 0 0 0-.973-.74 3.787 3.787 0 0 0-3.745.292 4.085 4.085 0 0 0-2.106 3.7 3.118 3.118 0 0 0 2.792 3.057 3.945 3.945 0 0 0 3.518-1.285c.186-.214.352-.448.559-.72H7.475c-.435 0-.538-.253-.393-.584.269-.6.766-1.616 1.055-2.122a.559.559 0 0 1 .517-.312h7.532c-.041.526-.041 1.051-.124 1.577a8.052 8.052 0 0 1-1.7 3.817 8.728 8.728 0 0 1-5.9 3.31A7.682 7.682 0 0 1 2.9 14.405a6.048 6.048 0 0 1-2.626-4.322 7.331 7.331 0 0 1 1.759-5.706 9.28 9.28 0 0 1 5.794-3.368 7.5 7.5 0 0 1 5.484.954 6.2 6.2 0 0 1 2.4 2.746c.124.175.041.273-.207.331z" transform="translate(-.215 -.866)"/>
        <path id="Path_76762" data-name="Path 76762" d="M78.884 16.544a8.067 8.067 0 0 1-5.049-1.713 6.022 6.022 0 0 1-2.235-3.755A7.113 7.113 0 0 1 73.277 5.2a8.786 8.786 0 0 1 5.794-3.25 8.082 8.082 0 0 1 5.9.992 6.032 6.032 0 0 1 2.918 4.34 7.25 7.25 0 0 1-2.38 6.6 9.682 9.682 0 0 1-4.966 2.491c-.562.093-1.121.113-1.659.171zm4.925-7.862a5.274 5.274 0 0 0-.062-.642 3.409 3.409 0 0 0-4.221-2.588A4.4 4.4 0 0 0 75.9 8.838a3.155 3.155 0 0 0 1.9 3.678 4.008 4.008 0 0 0 3.373-.117 4.26 4.26 0 0 0 2.628-3.717z" transform="translate(-59.247 -1.6)" style="fill:#00acd7"/>
    </g>
</svg>
