<svg xmlns="http://www.w3.org/2000/svg" xmlns:xlink="http://www.w3.org/1999/xlink" width="148.727" height="148.727" viewBox="0 0 148.727 148.727">
  <defs>
    <filter id="Ellipse_2058" x="0" y="0" width="148.727" height="148.727" filterUnits="userSpaceOnUse">
      <feOffset dy="3" input="SourceAlpha"/>
      <feGaussianBlur stdDeviation="16" result="blur"/>
      <feFlood flood-opacity="0.059"/>
      <feComposite operator="in" in2="blur"/>
      <feComposite in="SourceGraphic"/>
    </filter>
  </defs>
  <g id="Group_27994" data-name="Group 27994" transform="translate(44.364 41.364)">
    <rect id="Rectangle_3675" data-name="Rectangle 3675" width="60" height="60" fill="none"/>
    <g id="Group_27967" data-name="Group 27967" transform="translate(3.636 3.636)">
      <g transform="matrix(1, 0, 0, 1, -48, -45)" filter="url(#Ellipse_2058)">
        <circle id="Ellipse_2058-2" data-name="Ellipse 2058" cx="26.364" cy="26.364" r="26.364" transform="translate(48 45)" fill="#00aa63"/>
      </g>
      <g id="done_black_24dp" transform="translate(5.894 5.894)">
        <path id="Path_77604" data-name="Path 77604" d="M0,0H40.939V40.939H0Z" fill="none"/>
        <path id="Path_77605" data-name="Path 77605" d="M12.665,23.394l-5.97-5.97a1.689,1.689,0,1,0-2.388,2.388l7.147,7.147a1.7,1.7,0,0,0,2.405,0L31.94,8.895a1.689,1.689,0,0,0-2.388-2.388Z" transform="translate(2.687 4.24)" fill="#fff" stroke="#fff" stroke-width="0.5"/>
      </g>
    </g>
  </g>
</svg>
