<svg xmlns="http://www.w3.org/2000/svg" width="47.58" height="97.349" viewBox="0 0 47.58 97.349">
    <defs>
        <linearGradient id="linear-gradient" x1=".5" x2=".5" y2="1" gradientUnits="objectBoundingBox">
            <stop offset="0" stop-color="#fff"/>
            <stop offset="1" stop-color="#fff" stop-opacity=".4"/>
        </linearGradient>
        <linearGradient id="linear-gradient-2" x1=".176" y1="1" x2=".63" y2="-1.095" gradientUnits="objectBoundingBox">
            <stop offset="0" stop-color="#737373"/>
            <stop offset="1" stop-color="#fff"/>
        </linearGradient>
        <style>
            .cls-3{fill:url(#linear-gradient-2)}
        </style>
    </defs>
    <g id="Group_23239" data-name="Group 23239" transform="translate(9)">
        <path id="Path_76793" data-name="Path 76793" d="M-18036.576-819.185c-3.77 5-6.424 7.134-6.424 12.2a14.789 14.789 0 0 0 14.791 14.789 14.789 14.789 0 0 0 14.789-14.789c0-4.791-2.186-6.75-5.811-11.752s-4.031-8.258-8.689-8.258c-4.508-.005-4.88 2.807-8.656 7.81z" transform="translate(18043 880.549)" style="opacity:.43;fill:url(#linear-gradient)"/>
        <path id="Path_52886" data-name="Path 52886" d="M-18036.576-819.185c-3.77 5-6.424 7.134-6.424 12.2a14.789 14.789 0 0 0 14.791 14.789 14.789 14.789 0 0 0 14.789-14.789c0-4.791-2.186-6.75-5.811-11.752s-4.031-8.258-8.689-8.258c-4.508-.005-4.88 2.807-8.656 7.81z" transform="translate(18042.58 880.548)" style="fill:#fff"/>
        <path id="Path_52891" data-name="Path 52891" class="cls-3" d="M1.623 0h8.925a1.623 1.623 0 0 1 1.623 1.623v.811a1.623 1.623 0 0 1-1.623 1.623H1.623A1.623 1.623 0 0 1 0 2.434v-.811A1.623 1.623 0 0 1 1.623 0z" transform="translate(8.58 52.739)"/>
        <path id="Path_52890" data-name="Path 52890" class="cls-3" d="M1.623 0h8.925a1.623 1.623 0 0 1 1.623 1.623v.811a1.623 1.623 0 0 1-1.623 1.623H1.623A1.623 1.623 0 0 1 0 2.434v-.811A1.623 1.623 0 0 1 1.623 0z" transform="translate(8.58 49.493)"/>
        <path id="Path_52889" data-name="Path 52889" class="cls-3" d="M1.623 0h8.925a1.623 1.623 0 0 1 1.623 1.623v.811a1.623 1.623 0 0 1-1.623 1.623H1.623A1.623 1.623 0 0 1 0 2.434v-.811A1.623 1.623 0 0 1 1.623 0z" transform="translate(8.58 46.248)"/>
        <path id="Path_52888" data-name="Path 52888" d="M0 0h1.5v46.248H0z" transform="translate(13.58)" style="fill:#ff7623"/>
    </g>
</svg>
