<svg data-name="Group 25237" xmlns="http://www.w3.org/2000/svg" width="50" height="50" viewBox="0 0 50 50">
    <path data-name="Rectangle 6292" style="fill:none" d="M0 0h50v50H0z"/>
    <path d="M83.322 64a18.41 18.41 0 0 0-4.054.369c-3.593.645-4.238 1.935-4.238 4.331v3.225h8.477v1.105H71.9a5.371 5.371 0 0 0-5.344 4.238 16.877 16.877 0 0 0 0 8.569c.645 2.58 2.119 4.331 4.515 4.331h2.948V86.3a5.372 5.372 0 0 1 5.252-5.252h8.385a4.227 4.227 0 0 0 4.238-4.238V68.7c0-2.211-1.935-3.962-4.238-4.331A22.911 22.911 0 0 0 83.322 64zm-4.607 2.58a1.576 1.576 0 0 1 1.566 1.658 1.553 1.553 0 0 1-1.566 1.562 1.615 1.615 0 0 1-1.566-1.566 1.635 1.635 0 0 1 1.566-1.654z" transform="translate(-57.922 -56.39)" style="fill:#5a9fd4" data-name="Group 25193"/>
    <path data-name="Path 76743" d="M17.322 0a18.411 18.411 0 0 0-4.054.369C9.675 1.014 9.03 2.3 9.03 4.7v3.224h8.477V9.03H5.9a5.371 5.371 0 0 0-5.347 4.238 16.878 16.878 0 0 0 0 8.569c.645 2.58 2.119 4.33 4.515 4.33h2.948V22.3a5.372 5.372 0 0 1 5.252-5.252h8.385a4.227 4.227 0 0 0 4.238-4.238V4.7c0-2.211-1.935-3.962-4.238-4.33A22.912 22.912 0 0 0 17.322 0zm-4.607 2.58a1.576 1.576 0 0 1 1.566 1.658A1.553 1.553 0 0 1 12.715 5.8a1.615 1.615 0 0 1-1.566-1.566 1.635 1.635 0 0 1 1.566-1.654z" transform="rotate(180 21.428 21.195)" style="fill:#ffd43b"/>
</svg>
