<svg id="Group_25237" data-name="Group 25237" xmlns="http://www.w3.org/2000/svg" width="50" height="50" viewBox="0 0 50 50">
    <defs>
        <style>
            .cls-2{fill:#00acd7;fill-rule:evenodd}
        </style>
    </defs>
    <path id="Rectangle_6292" data-name="Rectangle 6292" style="fill:none" d="M0 0h50v50H0z"/>
    <g id="go-logo-blue" transform="translate(3.443 16.946)">
        <path id="Path_76758" data-name="Path 76758" class="cls-2" d="M15.884 21.18c-.084 0-.105-.042-.063-.105l.443-.569a.3.3 0 0 1 .236-.106h7.528c.084 0 .105.063.063.127l-.358.548a.321.321 0 0 1-.211.127z" transform="translate(-12.616 -16.3)"/>
        <path id="Path_76759" data-name="Path 76759" class="cls-2" d="M.784 30.38c-.084 0-.105-.042-.063-.105l.443-.569A.3.3 0 0 1 1.4 29.6h9.615a.1.1 0 0 1 .105.127l-.169.506a.184.184 0 0 1-.19.127z" transform="translate(-.7 -23.569)"/>
        <path id="Path_76760" data-name="Path 76760" class="cls-2" d="M24.984 39.58c-.084 0-.105-.063-.063-.127l.3-.527a.28.28 0 0 1 .211-.127h4.217c.084 0 .127.063.127.148l-.042.506a.158.158 0 0 1-.148.148z" transform="translate(-19.797 -30.839)"/>
        <g id="Group_25196" data-name="Group 25196" transform="translate(11.495)">
            <path id="Path_76761" data-name="Path 76761" class="cls-2" d="M15.794 5.365c-1.328.336-2.235.588-3.542.924-.316.084-.337.1-.611-.21a2.82 2.82 0 0 0-.991-.8 3.68 3.68 0 0 0-3.817.321 4.459 4.459 0 0 0-2.151 3.984 3.3 3.3 0 0 0 2.847 3.3 3.9 3.9 0 0 0 3.585-1.385c.19-.231.358-.483.569-.777h-4.07c-.443 0-.548-.273-.4-.63.274-.651.78-1.742 1.075-2.288a.569.569 0 0 1 .527-.336h7.675c-.042.567-.042 1.134-.127 1.7a8.931 8.931 0 0 1-1.729 4.114 8.791 8.791 0 0 1-6.01 3.569 7.494 7.494 0 0 1-5.672-1.385A6.587 6.587 0 0 1 .275 10.8a8.213 8.213 0 0 1 1.792-6.149 9.363 9.363 0 0 1 5.9-3.632 7.293 7.293 0 0 1 5.588 1.029 6.587 6.587 0 0 1 2.446 2.96c.127.189.042.294-.211.357z" transform="translate(-.215 -.866)"/>
            <path id="Path_76762" data-name="Path 76762" d="M79.025 17.7a7.932 7.932 0 0 1-5.145-1.847 6.576 6.576 0 0 1-2.28-4.047 7.987 7.987 0 0 1 1.708-6.339 8.847 8.847 0 0 1 5.9-3.505 7.851 7.851 0 0 1 6.01 1.071 6.531 6.531 0 0 1 2.982 4.68 8.081 8.081 0 0 1-2.425 7.116 9.676 9.676 0 0 1-5.061 2.687c-.572.104-1.141.125-1.689.184zm5.018-8.48a6.013 6.013 0 0 0-.063-.693 3.473 3.473 0 0 0-4.3-2.792 4.6 4.6 0 0 0-3.69 3.652 3.453 3.453 0 0 0 1.94 3.967 3.881 3.881 0 0 0 3.437-.126 4.593 4.593 0 0 0 2.678-4.009z" transform="translate(-56.659 -1.596)" style="fill:#00acd7"/>
        </g>
    </g>
</svg>
