<svg data-name="Group 25237" xmlns="http://www.w3.org/2000/svg" width="50" height="50" viewBox="0 0 50 50">
    <path data-name="Rectangle 6292" style="fill:none" d="M0 0h50v50H0z"/>
    <path d="M38.753 10.911 26.415 3.868a2.7 2.7 0 0 0-2.575 0l-12.469 7.043A2.63 2.63 0 0 0 10 13.132V27.2a2.652 2.652 0 0 0 1.386 2.223l3.294 1.84a5.356 5.356 0 0 0 2.848.763c2.331 0 3.663-1.386 3.663-3.8V14.333c0-.2-.1-.488-.3-.488h-1.573c-.2 0-.645.292-.645.488v13.888c0 1.072-.986 2.138-2.829 1.232l-3.4-1.929a.379.379 0 0 1-.2-.325V13.132c0-.133.155-.266.275-.334l12.423-7.031a.442.442 0 0 1 .4 0L37.621 12.8c.118.07.076.2.076.335V27.2c0 .134.051.265-.065.33L25.3 34.565a.356.356 0 0 1-.353 0l-3.163-1.856a.309.309 0 0 0-.3-.024 8.3 8.3 0 0 1-1.868.837c-.2.07-.5.19.115.531l4.14 2.408a2.648 2.648 0 0 0 2.606 0l12.278-7.037a2.467 2.467 0 0 0 1.181-2.224V13.132a2.459 2.459 0 0 0-1.183-2.221zM29 24.971c-3.281 0-4-.89-4.244-2.494-.028-.173-.177-.379-.356-.379h-1.6c-.2 0-.358.237-.358.431 0 2.054 1.136 4.542 6.562 4.542 3.928 0 6.18-1.5 6.18-4.156 0-2.633-1.809-3.324-5.618-3.82-3.85-.5-4.241-.753-4.241-1.64 0-.731.331-1.706 3.182-1.706 2.547 0 3.486.538 3.873 2.226a.352.352 0 0 0 .347.273h1.61a.371.371 0 0 0 .263-.109.352.352 0 0 0 .094-.269c-.249-2.907-2.214-4.262-6.186-4.262-3.534 0-5.642 1.467-5.642 3.927 0 2.668 2.1 3.4 5.49 3.735 4.058.391 4.374.974 4.374 1.759 0 1.363-1.113 1.944-3.724 1.944z" transform="translate(.929 4.836)" style="fill:#83cd29" data-name="Group 25233"/>
</svg>
