<svg id="Group_25237" data-name="Group 25237" xmlns="http://www.w3.org/2000/svg" width="50" height="50" viewBox="0 0 50 50">
    <defs>
        <clipPath id="clip-path">
            <path id="Path_76751" data-name="Path 76751" d="M31.618 73.919c11.763 0 21.3-5.107 21.3-11.407s-9.536-11.407-21.3-11.407-21.3 5.107-21.3 11.407 9.537 11.407 21.3 11.407z" transform="translate(-10.318 -51.106)"/>
        </clipPath>
        <style>
            .cls-1{fill:none}
        </style>
    </defs>
    <path id="Rectangle_6292" data-name="Rectangle 6292" class="cls-1" d="M0 0h50v50H0z"/>
    <g id="Group_26434" data-name="Group 26434" transform="translate(3.529 3.702)">
        <path id="Rectangle_6292-2" data-name="Rectangle 6292" class="cls-1" transform="translate(-.272)" d="M0 0h42.6v42.6H0z"/>
        <g id="php" transform="translate(.615 9.762)">
            <path id="Path_76753" data-name="Path 76753" d="M34.095 75.512c11.275 0 20.415-4.711 20.415-10.522s-9.14-10.522-20.415-10.522S13.68 59.18 13.68 64.991s9.14 10.521 20.415 10.521z" transform="translate(-12.795 -53.584)" style="fill-rule:evenodd;fill:#6e81b6"/>
            <path id="Path_76754" data-name="Path 76754" d="m53.965 75.32.989-5.558a3.025 3.025 0 0 0-.551-2.781 4.082 4.082 0 0 0-2.961-.85h-1.714l.49-2.754a.378.378 0 0 0-.068-.293.314.314 0 0 0-.25-.129h-2.364a.333.333 0 0 0-.318.287l-1.05 5.9a3.467 3.467 0 0 0-.707-1.706 3.941 3.941 0 0 0-3.26-1.306h-4.583a.333.333 0 0 0-.318.286l-2.126 11.945a.377.377 0 0 0 .068.292.313.313 0 0 0 .25.129h2.382a.333.333 0 0 0 .318-.287l.514-2.889h1.773a7.062 7.062 0 0 0 2.321-.326 4.488 4.488 0 0 0 1.705-1.115 5.66 5.66 0 0 0 1.011-1.365l-.425 2.386a.376.376 0 0 0 .068.292.313.313 0 0 0 .25.129h2.364a.333.333 0 0 0 .318-.286l1.167-6.556h1.622c.691 0 .894.15.949.215s.154.267.037.921l-.94 5.285a.379.379 0 0 0 .068.292.315.315 0 0 0 .25.129h2.4a.332.332 0 0 0 .321-.287zM43 70.728a2.915 2.915 0 0 1-.832 1.766 3.009 3.009 0 0 1-1.949.52h-1.05l.764-4.291H41.3c1 0 1.407.234 1.569.43A2.065 2.065 0 0 1 43 70.728zm20.917-3.291a3.94 3.94 0 0 0-3.26-1.306H56.08a.333.333 0 0 0-.318.286l-2.125 11.944a.375.375 0 0 0 .068.292.315.315 0 0 0 .25.129h2.383a.333.333 0 0 0 .318-.287l.514-2.889h1.774a7.061 7.061 0 0 0 2.323-.327 4.484 4.484 0 0 0 1.705-1.115A5.654 5.654 0 0 0 64 72.75a6.077 6.077 0 0 0 .562-1.7 4.359 4.359 0 0 0-.64-3.613zM61.6 70.728a2.919 2.919 0 0 1-.832 1.766 3.01 3.01 0 0 1-1.949.52h-1.053l.763-4.291H59.9c1 0 1.407.234 1.57.43a2.068 2.068 0 0 1 .138 1.574z" transform="translate(-28.626 -59.836)" style="fill:#fff;fill-rule:evenodd"/>
            <path id="Path_76755" data-name="Path 76755" d="M42.308 69.36a2.294 2.294 0 0 1 1.807.547 2.34 2.34 0 0 1 .215 1.879 2.67 2.67 0 0 1-3.094 2.572H39.79l.888-5h1.63zm-5.8 10.059h2.379l.564-3.175h2.038a6.715 6.715 0 0 0 2.219-.31 4.15 4.15 0 0 0 1.592-1.039 5.275 5.275 0 0 0 .968-1.326 5.688 5.688 0 0 0 .526-1.6 3.993 3.993 0 0 0-.569-3.308 3.624 3.624 0 0 0-3.011-1.185h-4.579zM48.536 64.3H50.9l-.564 3.176h2.1a3.84 3.84 0 0 1 2.738.757 2.68 2.68 0 0 1 .452 2.453l-.987 5.558h-2.4l.939-5.285a1.087 1.087 0 0 0-1.3-1.558h-1.889l-1.216 6.843h-2.36zm12.339 5.06a2.3 2.3 0 0 1 1.807.547 2.34 2.34 0 0 1 .215 1.879 2.67 2.67 0 0 1-3.097 2.573h-1.442l.888-5zm-5.8 10.059h2.379l.564-3.175h2.042a6.715 6.715 0 0 0 2.22-.31 4.151 4.151 0 0 0 1.583-1.039 5.269 5.269 0 0 0 .968-1.326 5.7 5.7 0 0 0 .526-1.6 4 4 0 0 0-.569-3.308 3.625 3.625 0 0 0-3.011-1.185H57.2z" transform="translate(-29.616 -60.826)" style="fill-rule:evenodd"/>
        </g>
    </g>
</svg>
