<svg xmlns="http://www.w3.org/2000/svg" width="26" height="37.998" viewBox="0 0 26 37.998">
    <defs>
        <style>
            .cls-1{fill:#99af0b}
        </style>
    </defs>
    <g id="Group_25826" data-name="Group 25826" transform="translate(-1109 -935.754)">
        <path id="Exclusion_3" data-name="Exclusion 3" class="cls-1" d="M23.4 21.467H2.6A2.645 2.645 0 0 1 0 18.784v-16.1A2.646 2.646 0 0 1 2.6 0h20.8A2.646 2.646 0 0 1 26 2.684v16.1a2.645 2.645 0 0 1-2.6 2.683zm-3.706-13.1V12.8a.649.649 0 0 0 .193.478.677.677 0 0 0 .5.193.65.65 0 0 0 .682-.67V6.427a.623.623 0 0 0-.21-.484.692.692 0 0 0-.472-.187.637.637 0 0 0-.539.3l-2.467 3.683-2.395-3.686a.634.634 0 0 0-.259-.214.749.749 0 0 0-.324-.083.683.683 0 0 0-.49.2.64.64 0 0 0-.2.473V12.8a.684.684 0 0 0 .175.478.588.588 0 0 0 .452.193.6.6 0 0 0 .462-.193.684.684 0 0 0 .175-.478V8.264l1.815 2.871a.915.915 0 0 0 .247.209.513.513 0 0 0 .261.079h.064a.526.526 0 0 0 .269-.079.915.915 0 0 0 .247-.209l1.812-2.765zm-9.009 0V12.8a.649.649 0 0 0 .193.478.677.677 0 0 0 .5.193.65.65 0 0 0 .682-.67V6.427a.623.623 0 0 0-.21-.484.692.692 0 0 0-.473-.187.637.637 0 0 0-.539.3L8.372 9.739 5.977 6.053a.634.634 0 0 0-.259-.214.749.749 0 0 0-.324-.083.683.683 0 0 0-.49.2.64.64 0 0 0-.2.473V12.8a.684.684 0 0 0 .175.478.588.588 0 0 0 .452.193.6.6 0 0 0 .462-.193.684.684 0 0 0 .175-.478V8.264l1.815 2.871a.915.915 0 0 0 .248.209.513.513 0 0 0 .261.079h.064a.526.526 0 0 0 .269-.079.915.915 0 0 0 .247-.209l1.811-2.765z" transform="translate(1109 952.285)"/>
        <g id="Group_25823" data-name="Group 25823" transform="translate(1109.12 935.754)">
            <path id="Path_76969" data-name="Path 76969" class="cls-1" d="M1.12-1.6h3.59v-6.952L7.164-1.6h3L12.6-8.5v6.9h3.59v-12.5h-4.319L8.7-5.982 5.461-14.1H1.12zm17.125 0h3.59v-4.9h3.81v-2.637h-3.81v-2.2H27V-14.1h-8.755z" transform="translate(-1.12 14.1)"/>
        </g>
    </g>
</svg>
