<svg xmlns="http://www.w3.org/2000/svg" width="90" height="90" viewBox="0 0 90 90">
    <defs>
        <filter id="Rectangle_6487" x="0" y="0" width="90" height="90" filterUnits="userSpaceOnUse">
            <feOffset dy="4"/>
            <feGaussianBlur stdDeviation="7" result="blur"/>
            <feFlood flood-opacity=".161"/>
            <feComposite operator="in" in2="blur"/>
            <feComposite in="SourceGraphic"/>
        </filter>
        <style>
            .cls-3{fill:#fff}
        </style>
    </defs>
    <g id="Group_25616" data-name="Group 25616" transform="translate(21 17)">
        <g transform="translate(-21 -17)" style="filter:url(#Rectangle_6487)" id="Group_25603" data-name="Group 25603">
            <rect id="Rectangle_6487-2" data-name="Rectangle 6487" width="48" height="48" rx="10" transform="translate(21 17)" style="fill:#09aa4a"/>
        </g>
        <g id="dns_black_24dp" transform="rotate(180 21 21)">
            <path id="Path_53135" data-name="Path 53135" d="M0 0h36v36H0z" style="fill:none"/>
        </g>
        <g id="noun_Candlestick_Chart_1759317_1_" data-name="noun_Candlestick Chart_1759317 (1)" transform="translate(3.741 3.741)">
            <g id="Group_25665" data-name="Group 25665" transform="translate(6 6)">
                <path id="Path_76934" data-name="Path 76934" class="cls-3" d="M9.336 6H8.224v2.641H6v14.178h2.224v5.143h1.112v-5.143h2.224V8.641H9.336z" transform="translate(-6 -6)"/>
                <path id="Path_76935" data-name="Path 76935" class="cls-3" d="M35.336 32.5h-1.112v3.336H32v14.595h2.224v1.946h1.112v-1.946h2.224V35.836h-2.224z" transform="translate(-24.347 -23.859)"/>
                <path id="Path_76936" data-name="Path 76936" class="cls-3" d="M61.336 21h-1.112v5.784H58v9.343h2.224v5.19h1.112v-5.19h2.224v-9.343h-2.224z" transform="translate(-42.695 -16.83)"/>
                <path id="Path_76937" data-name="Path 76937" class="cls-3" d="M89.56 42.172h-2.224V35.5h-1.112v6.672H84v8.2h2.224V52.6h1.112v-2.227h2.224z" transform="translate(-61.042 -26.025)"/>
            </g>
        </g>
    </g>
</svg>
