<svg xmlns="http://www.w3.org/2000/svg" width="26" height="37" viewBox="0 0 26 37">
    <defs>
        <style>
            .cls-1{fill:#0baf89}
        </style>
    </defs>
    <g id="Group_25823" data-name="Group 25823" transform="translate(-831 -1260.9)">
        <path id="Path_76969" data-name="Path 76969" class="cls-1" d="M1.12-1.6h3.59v-6.952L7.164-1.6h3L12.6-8.5v6.9h3.59v-12.5h-4.319L8.7-5.982 5.461-14.1H1.12zm17.125 0h3.59v-4.9h3.81v-2.637h-3.81v-2.2H27V-14.1h-8.755z" transform="translate(830 1275)"/>
        <g id="Group_25817" data-name="Group 25817" transform="translate(831 1276.433)">
            <g id="Group_25820" data-name="Group 25820">
                <path id="Rectangle_6531" data-name="Rectangle 6531" class="cls-1" transform="translate(17.487 8.721)" d="M0 0h2.683v1.342H0z"/>
                <path id="Path_76971" data-name="Path 76971" class="cls-1" d="M25.4 4H4.6A2.65 2.65 0 0 0 2 6.683v16.1a2.65 2.65 0 0 0 2.6 2.683h20.8a2.65 2.65 0 0 0 2.6-2.682V6.683A2.65 2.65 0 0 0 25.4 4zm-13 7.715a1 1 0 0 1-.975 1.006H7.85v1.006h3.25a1.325 1.325 0 0 1 1.3 1.342v2.348a1.325 1.325 0 0 1-1.3 1.342H6.875a1 1 0 0 1-.975-1.007 1 1 0 0 1 .975-1.006h3.575V15.74H7.2a1.325 1.325 0 0 1-1.3-1.34v-2.35a1.325 1.325 0 0 1 1.3-1.342h4.225a1 1 0 0 1 .975 1.006zm2.6 7.044a1.325 1.325 0 0 1-1.3-1.342V12.05a1.325 1.325 0 0 1 1.3-1.342 1.325 1.325 0 0 1 1.3 1.342v5.367a1.325 1.325 0 0 1-1.3 1.342zm9.1-4.025a1.325 1.325 0 0 1-1.3 1.342h-3.25v1.677a1 1 0 0 1-.975 1.006 1 1 0 0 1-.975-1.006v-5.7a1.325 1.325 0 0 1 1.3-1.342h3.9a1.325 1.325 0 0 1 1.3 1.342z" transform="translate(-2 -4)"/>
            </g>
        </g>
    </g>
</svg>
