<svg xmlns="http://www.w3.org/2000/svg" width="32.669" height="89.963" viewBox="0 0 32.669 89.963">
    <g data-name="Group 26408">
        <path data-name="Path 76947" d="M74.279 28.688a10.981 10.981 0 1 1 10.98 10.981 10.993 10.993 0 0 1-10.98-10.981zm21.962 29.264a10.981 10.981 0 1 1-10.982-10.981 10.993 10.993 0 0 1 10.982 10.981zm-4.148 0a6.833 6.833 0 1 0-6.834 6.833 6.84 6.84 0 0 0 6.834-6.833zm4.148 29.264a10.981 10.981 0 1 1-10.982-10.981 10.993 10.993 0 0 1 10.982 10.981zm-4.148 0a6.833 6.833 0 1 0-6.834 6.832 6.841 6.841 0 0 0 6.834-6.832z" transform="translate(-74 -8.233)" style="fill:#fff;opacity:.43"/>
        <path data-name="Path 76948" d="M0 0h32.669v32.669H0z" style="fill:none"/>
        <path data-name="Path 76949" d="m10.876 19.882-4.765-4.765a1.348 1.348 0 1 0-1.906 1.906l5.7 5.7a1.356 1.356 0 0 0 1.919 0L26.257 8.311a1.348 1.348 0 0 0-1.906-1.906z" transform="translate(1.375 2.17)" style="fill:#039a3a;stroke:#039a3a"/>
    </g>
</svg>
