<svg xmlns="http://www.w3.org/2000/svg" width="90" height="90" viewBox="0 0 90 90">
    <defs>
        <filter id="Rectangle_6487" x="0" y="0" width="90" height="90" filterUnits="userSpaceOnUse">
            <feOffset dy="4"/>
            <feGaussianBlur stdDeviation="7" result="blur"/>
            <feFlood flood-opacity=".161"/>
            <feComposite operator="in" in2="blur"/>
            <feComposite in="SourceGraphic"/>
        </filter>
        <style>
            .cls-3{fill:#fff}
        </style>
    </defs>
    <g id="Group_26870" data-name="Group 26870" transform="translate(-1088 -878.854)">
        <g id="Group_25616" data-name="Group 25616" transform="translate(1109 895.854)">
            <g transform="translate(-21 -17)" style="filter:url(#Rectangle_6487)" id="Group_25603" data-name="Group 25603">
                <rect id="Rectangle_6487-2" data-name="Rectangle 6487" width="48" height="48" rx="10" transform="translate(21 17)" style="fill:#0f73ec"/>
            </g>
            <g id="dns_black_24dp" transform="rotate(180 21 21)">
                <path id="Path_53135" data-name="Path 53135" d="M0 0h36v36H0z" style="fill:none"/>
            </g>
        </g>
        <g id="Group_25657" data-name="Group 25657" transform="translate(1119.773 906.704)">
            <path id="Path_76928" data-name="Path 76928" class="cls-3" d="m17.626 16.074 7.1-7.465 1.164 1.136a.887.887 0 0 0 .974.2.961.961 0 0 0 .612-.795l.612-5.336a.943.943 0 0 0-.278-.795.91.91 0 0 0-.779-.255l-5.259.823a.943.943 0 0 0-.751.653.893.893 0 0 0 .25.965l1.169 1.134-6.01 6.329-3.423-3.405a1.567 1.567 0 0 0-1.03-.454 1.633 1.633 0 0 0-1.252.482l-7.818 8.231a1.733 1.733 0 0 0 .056 2.327 1.584 1.584 0 0 0 .584.369c.083.028.195.057.306.085.083 0 .167.028.25.028a1.545 1.545 0 0 0 1.113-.482l6.706-7.1 3.422 3.377a1.6 1.6 0 0 0 2.282-.052z" transform="translate(-2.486 -2.749)"/>
            <path id="Path_76929" data-name="Path 76929" class="cls-3" d="M14.1 75.8H9.3a.9.9 0 0 0-.908.908v4.257a.9.9 0 0 0 .908.908h4.8a.9.9 0 0 0 .908-.908v-4.257a.915.915 0 0 0-.908-.908z" transform="translate(-6.721 -55.576)"/>
            <path id="Path_76930" data-name="Path 76930" class="cls-3" d="M47 62.4h-4.8a.9.9 0 0 0-.908.908v8.061a.9.9 0 0 0 .908.908H47a.9.9 0 0 0 .908-.908V63.28A.891.891 0 0 0 47 62.4z" transform="translate(-30.561 -45.98)"/>
            <path id="Path_76931" data-name="Path 76931" class="cls-3" d="M79.9 48.9h-4.8a.9.9 0 0 0-.908.908V61.7a.9.9 0 0 0 .908.908h4.8a.9.9 0 0 0 .908-.908V49.808a.9.9 0 0 0-.908-.908z" transform="translate(-54.359 -36.311)"/>
        </g>
    </g>
</svg>
