<svg xmlns="http://www.w3.org/2000/svg" width="36.195" height="63.349" viewBox="0 0 36.195 63.349">
    <defs>
        <linearGradient id="linear-gradient" x1=".5" x2=".5" y2="1" gradientUnits="objectBoundingBox">
            <stop offset="0" stop-color="#fff"/>
            <stop offset="1" stop-color="#fff" stop-opacity=".4"/>
        </linearGradient>
        <linearGradient id="linear-gradient-2" x1=".176" y1="1" x2=".63" y2="-1.095" gradientUnits="objectBoundingBox">
            <stop offset="0" stop-color="#737373"/>
            <stop offset="1" stop-color="#fff"/>
        </linearGradient>
        <style>
            .cls-3{fill:url(#linear-gradient-2)}
        </style>
    </defs>
    <g id="Group_25344" data-name="Group 25344" transform="translate(9.001)">
        <path id="Path_76793" data-name="Path 76793" d="M-18039.049-822.192c-2.318 3.077-3.951 4.388-3.951 7.5a9.1 9.1 0 0 0 9.1 9.1 9.1 9.1 0 0 0 9.1-9.1c0-2.947-1.344-4.152-3.574-7.229s-2.48-5.08-5.344-5.08c-2.782.001-3.011 1.732-5.331 4.809z" transform="translate(18043 859.941)" style="opacity:.43;fill:url(#linear-gradient)"/>
        <path id="Path_52886" data-name="Path 52886" d="M-18039.049-822.192c-2.318 3.077-3.951 4.388-3.951 7.5a9.1 9.1 0 0 0 9.1 9.1 9.1 9.1 0 0 0 9.1-9.1c0-2.947-1.344-4.152-3.574-7.229s-2.48-5.08-5.344-5.08c-2.782.001-3.011 1.732-5.331 4.809z" transform="translate(18042.844 859.94)" style="fill:#fff"/>
        <path id="Path_52891" data-name="Path 52891" class="cls-3" d="M1 0h5.49a1 1 0 0 1 1 1v.5a1 1 0 0 1-1 1H1a1 1 0 0 1-1-1V1a1 1 0 0 1 1-1z" transform="translate(5.197 32.443)"/>
        <path id="Path_52890" data-name="Path 52890" class="cls-3" d="M1 0h5.49a1 1 0 0 1 1 1v.5a1 1 0 0 1-1 1H1a1 1 0 0 1-1-1V1a1 1 0 0 1 1-1z" transform="translate(5.197 30.447)"/>
        <path id="Path_52889" data-name="Path 52889" class="cls-3" d="M1 0h5.49a1 1 0 0 1 1 1v.5a1 1 0 0 1-1 1H1a1 1 0 0 1-1-1V1a1 1 0 0 1 1-1z" transform="translate(5.197 28.45)"/>
        <path id="Path_52888" data-name="Path 52888" d="M0 0h1.5v28.45H0z" transform="translate(8.197)" style="fill:#ff7623"/>
    </g>
</svg>
