<svg id="Group_26865" data-name="Group 26865" xmlns="http://www.w3.org/2000/svg" width="112.999" height="22" viewBox="0 0 112.999 22">
    <defs>
        <style>
            .cls-1{fill:none}.cls-2{fill:#ffa41c}
        </style>
    </defs>
    <g id="star_rate_black_24dp">
        <path id="Rectangle_6281" data-name="Rectangle 6281" class="cls-1" d="M0 0h23v22H0z"/>
        <path id="Path_76741" data-name="Path 76741" class="cls-2" d="m13.68 9.6-1.363-4.492a.924.924 0 0 0-1.771 0L9.173 9.6H5.047a.926.926 0 0 0-.538 1.678l3.375 2.411-1.325 4.271a.926.926 0 0 0 1.446 1.01l3.422-2.6 3.422 2.606a.926.926 0 0 0 1.446-1.011l-1.326-4.275 3.375-2.411a.925.925 0 0 0-.538-1.678H13.68z" transform="translate(.022 -.756)"/>
    </g>
    <g id="star_rate_black_24dp-2" data-name="star_rate_black_24dp" transform="translate(22.999)">
        <path id="Rectangle_6281-2" data-name="Rectangle 6281" class="cls-1" d="M0 0h22v22H0z"/>
        <path id="Path_76741-2" data-name="Path 76741" class="cls-2" d="m13.68 9.6-1.363-4.492a.924.924 0 0 0-1.771 0L9.173 9.6H5.047a.926.926 0 0 0-.538 1.678l3.375 2.411-1.325 4.271a.926.926 0 0 0 1.446 1.01l3.422-2.6 3.422 2.606a.926.926 0 0 0 1.446-1.011l-1.326-4.275 3.375-2.411a.925.925 0 0 0-.538-1.678H13.68z" transform="translate(-.513 -.756)"/>
    </g>
    <g id="star_rate_black_24dp-3" data-name="star_rate_black_24dp" transform="translate(44.998)">
        <path id="Rectangle_6281-3" data-name="Rectangle 6281" class="cls-1" d="M0 0h23v22H0z"/>
        <path id="Path_76741-3" data-name="Path 76741" class="cls-2" d="m13.68 9.6-1.363-4.492a.924.924 0 0 0-1.771 0L9.173 9.6H5.047a.926.926 0 0 0-.538 1.678l3.375 2.411-1.325 4.271a.926.926 0 0 0 1.446 1.01l3.422-2.6 3.422 2.606a.926.926 0 0 0 1.446-1.011l-1.326-4.275 3.375-2.411a.925.925 0 0 0-.538-1.678H13.68z" transform="translate(-.048 -.756)"/>
    </g>
    <g id="star_rate_black_24dp-4" data-name="star_rate_black_24dp" transform="translate(68)">
        <path id="Rectangle_6281-4" data-name="Rectangle 6281" class="cls-1" d="M0 0h22v22H0z"/>
        <path id="Path_76741-4" data-name="Path 76741" class="cls-2" d="m13.68 9.6-1.363-4.492a.924.924 0 0 0-1.771 0L9.173 9.6H5.047a.926.926 0 0 0-.538 1.678l3.375 2.411-1.325 4.271a.926.926 0 0 0 1.446 1.01l3.422-2.6 3.422 2.606a.926.926 0 0 0 1.446-1.011l-1.326-4.275 3.375-2.411a.925.925 0 0 0-.538-1.678H13.68z" transform="translate(-.585 -.756)"/>
    </g>
    <g id="star_rate_black_24dp-5" data-name="star_rate_black_24dp" transform="translate(89.999)">
        <path id="Rectangle_6281-5" data-name="Rectangle 6281" class="cls-1" d="M0 0h23v22H0z"/>
        <path id="Path_76741-5" data-name="Path 76741" d="m13.68 9.6-1.363-4.492a.924.924 0 0 0-1.771 0L9.173 9.6H5.047a.926.926 0 0 0-.538 1.678l3.375 2.411-1.325 4.271a.926.926 0 0 0 1.446 1.01l3.422-2.6 3.422 2.606a.926.926 0 0 0 1.446-1.011l-1.326-4.275 3.375-2.411a.925.925 0 0 0-.538-1.678H13.68z" transform="translate(-.12 -.756)" style="stroke:#ffa41c;fill:none"/>
    </g>
</svg>
