<svg id="Group_25237" data-name="Group 25237" xmlns="http://www.w3.org/2000/svg" width="50" height="50" viewBox="0 0 50 50">
    <defs>
        <clipPath id="clip-path">
            <path id="Rectangle_6284" data-name="Rectangle 6284" style="fill:#fff;stroke:#707070" d="M0 0h40.349v43.712H0z"/>
        </clipPath>
        <style>
            .cls-3{fill:#0074bd}.cls-4{fill:#ea2d2e}
        </style>
    </defs>
    <g id="Mask_Group_14408" data-name="Mask Group 14408" transform="translate(4.813 3.133)" style="clip-path:url(#clip-path)">
        <g id="java" transform="translate(8.518)">
            <path id="Path_76744" data-name="Path 76744" class="cls-3" d="M48.147 61.741s-1.106.678.788.907a15.761 15.761 0 0 0 6-.267 10.324 10.324 0 0 0 1.595.819c-5.674 2.557-12.836-.149-8.383-1.459zm-.693-3.341s-1.241.968.655 1.174a22.24 22.24 0 0 0 7.738-.391 3.4 3.4 0 0 0 1.191.765c-6.854 2.113-14.487.168-9.584-1.548z" transform="translate(-40.364 -38.55)"/>
            <path id="Path_76745" data-name="Path 76745" class="cls-4" d="M65.41 27.231c1.472 1.694-.386 3.218-.386 3.218s3.735-1.928 2.02-4.344c-1.6-2.252-2.831-3.37 3.82-7.227.001.001-10.44 2.608-5.454 8.353z" transform="translate(-52.501 -12.65)"/>
            <path id="Path_76746" data-name="Path 76746" class="cls-3" d="M52.175 57.38s.84.711-.925 1.261c-3.35 1.043-13.965 1.359-16.912.041-1.059-.473.928-1.13 1.552-1.268a3.944 3.944 0 0 1 1.024-.118c-1.178-.852-7.616 1.674-3.27 2.4 11.856 1.97 21.605-.896 18.531-2.316zm-12.42-9.268s-5.4 1.317-1.911 1.8a39.5 39.5 0 0 0 7.139-.08c2.234-.193 4.475-.6 4.475-.6a9.449 9.449 0 0 0-1.357.746c-5.481 1.481-16.068.791-13.02-.723a9.968 9.968 0 0 1 4.674-1.143zm9.681 5.557c5.571-2.973 3-5.829 1.2-5.445A4.147 4.147 0 0 0 50 48.4a1.02 1.02 0 0 1 .476-.377c3.557-1.284 6.292 3.788-1.147 5.8a.5.5 0 0 0 .107-.154z" transform="translate(-31.497 -31.713)"/>
            <path id="Path_76747" data-name="Path 76747" class="cls-4" d="M59.644 1.313s3.169 3.17-3.006 8.044c-4.951 3.911-1.129 6.14 0 8.688-2.89-2.608-5.01-4.9-3.588-7.04 2.088-3.136 7.874-4.657 6.6-9.691z" transform="translate(-44.978 -1.313)"/>
            <path id="Path_76748" data-name="Path 76748" class="cls-3" d="M47.9 81.955c5.491.351 13.926-.2 14.126-2.794 0 0-.384.985-4.539 1.766a45.13 45.13 0 0 1-13.9.214s.706.582 4.313.814z" transform="translate(-39.468 -52.052)"/>
            <path id="Path_76749" data-name="Path 76749" class="cls-4" d="M52.628 95.476h-.163v-.094h.435v.094h-.163v.467h-.114zm.877.023-.162.444h-.075l-.161-.444v.444H53v-.561h.158l.149.4.149-.4h.157v.561h-.1zm-15.283 5.245a2.4 2.4 0 0 1-1.519.7.981.981 0 0 1-1.053-1.094c0-.729.4-1.262 1.985-1.262h.587v1.655zm1.394 1.613v-4.992c0-1.276-.71-2.118-2.42-2.118a6.255 6.255 0 0 0-2.585.575l.2.884a5.875 5.875 0 0 1 2-.407c.986 0 1.409.407 1.409 1.249v.631h-.493c-2.394 0-3.474.952-3.474 2.384a1.8 1.8 0 0 0 2.052 1.935 3.056 3.056 0 0 0 2.106-.9l.109.758h1.094zm4.652 0h-1.739l-2.093-6.982h1.519l1.3 4.291.289 1.289a27.445 27.445 0 0 0 1.356-5.579h1.477a28.868 28.868 0 0 1-2.105 6.982zm6.671-1.613a2.413 2.413 0 0 1-1.519.7.981.981 0 0 1-1.053-1.094c0-.729.4-1.262 1.984-1.262h.588v1.655zm1.395 1.613v-4.992c0-1.276-.712-2.118-2.421-2.118a6.254 6.254 0 0 0-2.585.575l.205.884a5.881 5.881 0 0 1 2-.407c.984 0 1.409.407 1.409 1.249v.631h-.493c-2.394 0-3.474.952-3.474 2.384a1.8 1.8 0 0 0 2.051 1.935 3.061 3.061 0 0 0 2.107-.9l.11.758h1.094zm-19.608 1.187a3.663 3.663 0 0 1-1.742 1.332l-.688-.832a2.922 2.922 0 0 0 1.207-1.159 4.588 4.588 0 0 0 .26-2.022v-7.972h1.482v7.863a4.637 4.637 0 0 1-.519 2.79z" transform="translate(-30.296 -61.165)"/>
        </g>
    </g>
    <path id="Rectangle_6292" data-name="Rectangle 6292" style="fill:none" d="M0 0h50v50H0z"/>
</svg>
