<svg xmlns="http://www.w3.org/2000/svg" width="90" height="90" viewBox="0 0 90 90">
    <defs>
        <filter id="Rectangle_6487" x="0" y="0" width="90" height="90" filterUnits="userSpaceOnUse">
            <feOffset dy="4"/>
            <feGaussianBlur stdDeviation="7" result="blur"/>
            <feFlood flood-opacity=".161"/>
            <feComposite operator="in" in2="blur"/>
            <feComposite in="SourceGraphic"/>
        </filter>
        <style>
            .cls-3{fill:#fff}
        </style>
    </defs>
    <g id="Group_25616" data-name="Group 25616" transform="translate(21 17)">
        <g transform="translate(-21 -17)" style="filter:url(#Rectangle_6487)" id="Group_25603" data-name="Group 25603">
            <rect id="Rectangle_6487-2" data-name="Rectangle 6487" width="48" height="48" rx="10" transform="translate(21 17)" style="fill:#ec0f51"/>
        </g>
        <g id="dns_black_24dp" transform="rotate(180 21 21)">
            <path id="Path_53135" data-name="Path 53135" d="M0 0h36v36H0z" style="fill:none"/>
        </g>
        <g id="noun_analysis_286718" transform="translate(10.546 8.59)">
            <g id="Group_25663" data-name="Group 25663" transform="translate(0 3)">
                <path id="Path_76932" data-name="Path 76932" class="cls-3" d="m26.252 23.079-5.689-5.688a11.161 11.161 0 0 0 .8-10.918l-2.606 2.6a7.857 7.857 0 1 1-2.484-3.856l2.381-2.381a11.207 11.207 0 1 0-7.442 19.582 11.14 11.14 0 0 0 6.18-1.86l5.689 5.688a2.243 2.243 0 0 0 3.172-3.172z"/>
                <path id="Path_76933" data-name="Path 76933" class="cls-3" d="m14.241 8.682-2.624-2.624a1.144 1.144 0 0 0-1.954.809v6.393l-1.48-1.48a1.143 1.143 0 0 0-1.618 0l-2.152 2.152a6.893 6.893 0 0 0 1.221 2.015l1.74-1.74L10 16.832a1.144 1.144 0 0 0 1.954-.809V9.63l1.48 1.48a1.143 1.143 0 0 0 1.618 0l7.437-7.44 2.052 2.052V0h-5.722l2.052 2.052z" transform="translate(.077)"/>
            </g>
        </g>
    </g>
</svg>
