<svg data-name="Group 25899" xmlns="http://www.w3.org/2000/svg" width="60" height="20" viewBox="0 0 60 20">
    <defs>
        <linearGradient id="a" x1="1.1" y1="-.195" x2="-.1" y2="1.096" gradientUnits="objectBoundingBox">
            <stop offset="0" stop-color="#f32167"/>
            <stop offset="1" stop-color="#116c7a"/>
        </linearGradient>
    </defs>
    <rect data-name="Rectangle 4749" width="60" height="20" rx="10" style="fill:#fff"/>
    <path data-name="Path 76923" d="M.74 0v-7.1h3.01a2.015 2.015 0 0 1 .9.2 2.341 2.341 0 0 1 .715.54 2.548 2.548 0 0 1 .47.76 2.286 2.286 0 0 1 .17.855 2.464 2.464 0 0 1-.16.875 2.429 2.429 0 0 1-.45.755 2.211 2.211 0 0 1-.7.53 2.025 2.025 0 0 1-.9.2H2.12V0zm1.38-3.59h1.6a.79.79 0 0 0 .635-.31 1.283 1.283 0 0 0 .255-.84 1.383 1.383 0 0 0-.08-.485 1.178 1.178 0 0 0-.21-.365.836.836 0 0 0-.3-.225.894.894 0 0 0-.36-.075H2.12zM9.37.1a2.876 2.876 0 0 1-1.15-.22 2.583 2.583 0 0 1-.865-.6 2.626 2.626 0 0 1-.545-.86 2.824 2.824 0 0 1-.19-1.03 2.851 2.851 0 0 1 .19-1.04 2.626 2.626 0 0 1 .545-.865 2.583 2.583 0 0 1 .865-.6 2.876 2.876 0 0 1 1.15-.22 2.84 2.84 0 0 1 1.145.22 2.6 2.6 0 0 1 .86.6 2.626 2.626 0 0 1 .545.865 2.851 2.851 0 0 1 .19 1.04 2.824 2.824 0 0 1-.19 1.03 2.669 2.669 0 0 1-.54.865 2.529 2.529 0 0 1-.86.6A2.876 2.876 0 0 1 9.37.1zM8-2.61a1.826 1.826 0 0 0 .1.635 1.552 1.552 0 0 0 .29.5 1.3 1.3 0 0 0 .435.325 1.276 1.276 0 0 0 .54.115 1.276 1.276 0 0 0 .54-.115 1.3 1.3 0 0 0 .435-.325 1.541 1.541 0 0 0 .29-.5 1.868 1.868 0 0 0 .1-.64 1.837 1.837 0 0 0-.1-.63 1.541 1.541 0 0 0-.29-.5 1.3 1.3 0 0 0-.435-.325 1.276 1.276 0 0 0-.54-.115 1.232 1.232 0 0 0-.54.12 1.357 1.357 0 0 0-.435.33 1.541 1.541 0 0 0-.29.5 1.837 1.837 0 0 0-.1.625zM16.35.1a2.065 2.065 0 0 1-1.08-.275 1.956 1.956 0 0 1-.72-.745v3.05h-1.34v-7.37h1.17v.9a2.138 2.138 0 0 1 .75-.725 2.085 2.085 0 0 1 1.06-.265 2.244 2.244 0 0 1 .98.215 2.427 2.427 0 0 1 .775.58 2.7 2.7 0 0 1 .51.86 2.96 2.96 0 0 1 .185 1.045 3.3 3.3 0 0 1-.17 1.07 2.738 2.738 0 0 1-.475.87 2.215 2.215 0 0 1-.725.58 2.028 2.028 0 0 1-.92.21zm-.45-1.14a1.2 1.2 0 0 0 .555-.13 1.345 1.345 0 0 0 .435-.35 1.643 1.643 0 0 0 .28-.51 1.828 1.828 0 0 0 .1-.6 1.693 1.693 0 0 0-.11-.615 1.527 1.527 0 0 0-.305-.495 1.421 1.421 0 0 0-.46-.33 1.377 1.377 0 0 0-.575-.12 1.258 1.258 0 0 0-.39.065 1.374 1.374 0 0 0-.37.185 1.62 1.62 0 0 0-.305.28 1.163 1.163 0 0 0-.2.35v1.23a1.781 1.781 0 0 0 .55.745 1.258 1.258 0 0 0 .795.295zM21.35.1a1.488 1.488 0 0 1-1.23-.52 2.41 2.41 0 0 1-.42-1.54v-3.28h1.34v2.99q0 1.21.87 1.21a1.376 1.376 0 0 0 .755-.235 1.689 1.689 0 0 0 .6-.715v-3.25H24.6v3.7a.471.471 0 0 0 .075.3.329.329 0 0 0 .245.1V0a2.83 2.83 0 0 1-.335.05q-.135.01-.245.01a.965.965 0 0 1-.585-.165.65.65 0 0 1-.265-.455l-.03-.42a2.233 2.233 0 0 1-.9.81 2.708 2.708 0 0 1-1.21.27zm4.77-7.4h1.34v5.62a.661.661 0 0 0 .14.45.5.5 0 0 0 .4.16 1 1 0 0 0 .265-.04 1.792 1.792 0 0 0 .275-.1l.18 1.02a2.592 2.592 0 0 1-.63.2 3.437 3.437 0 0 1-.65.07 1.342 1.342 0 0 1-.975-.335 1.27 1.27 0 0 1-.345-.955zM30.93.1a1.988 1.988 0 0 1-.71-.125 1.707 1.707 0 0 1-.57-.35 1.629 1.629 0 0 1-.375-.525 1.59 1.59 0 0 1-.135-.66 1.454 1.454 0 0 1 .165-.685 1.571 1.571 0 0 1 .46-.535 2.28 2.28 0 0 1 .7-.345 3.075 3.075 0 0 1 .9-.125 3.878 3.878 0 0 1 .685.06 2.79 2.79 0 0 1 .6.17v-.3a1.05 1.05 0 0 0-.3-.8 1.227 1.227 0 0 0-.875-.28 2.318 2.318 0 0 0-.82.15 3.808 3.808 0 0 0-.82.44l-.41-.85a3.869 3.869 0 0 1 2.18-.67 2.554 2.554 0 0 1 1.755.555 2.034 2.034 0 0 1 .63 1.605v1.63a.471.471 0 0 0 .075.3.329.329 0 0 0 .245.1V0a2.983 2.983 0 0 1-.59.07.893.893 0 0 1-.585-.17.731.731 0 0 1-.255-.45l-.03-.29a2.319 2.319 0 0 1-.85.7 2.441 2.441 0 0 1-1.07.24zm.38-.98a1.746 1.746 0 0 0 .645-.12 1.171 1.171 0 0 0 .475-.32.481.481 0 0 0 .22-.38v-.6a3.281 3.281 0 0 0-.52-.145 2.8 2.8 0 0 0-.54-.055 1.432 1.432 0 0 0-.85.235.706.706 0 0 0-.33.6.716.716 0 0 0 .26.565.944.944 0 0 0 .64.22zm7.25-3.2a2.643 2.643 0 0 0-1.09.235 1.376 1.376 0 0 0-.69.675V0h-1.34v-5.24h1.23v1.12a2.389 2.389 0 0 1 .33-.485 2.545 2.545 0 0 1 .41-.375 1.9 1.9 0 0 1 .445-.245 1.228 1.228 0 0 1 .435-.085h.165a.534.534 0 0 1 .1.01z" transform="translate(10.757 13)" style="fill:url(#a)"/>
</svg>
