<svg xmlns="http://www.w3.org/2000/svg" width="22" height="22" viewBox="0 0 22 22">
    <g data-name="Group 19733">
        <path data-name="Path 12236" d="M34.093 25a11 11 0 1 1-11 11 11 11 0 0 1 11-11z" transform="translate(-23.093 -25)" style="fill-rule:evenodd;fill:#ef5713"/>
        <path data-name="Path 12237" d="m37.623 40.284.446-1.047h-1.177l.732 1.047zm-.192-2.149.638 1.1.47-1.1zm0 0 .652-1.333h-1.418l.766 1.333zM33.843 36.8l1.407 2.739 1.415-2.739zm1.407 2.739-1.485 2.866h2.955l-.706-1.378-.764-1.488zm.727-1.406.7 1.532.211-.431.539-1.1zm.7 1.532-.666 1.362h1.291l-.624-1.362zm.942.617-.318.746h.839l-.521-.746zm-.9 2.124h1.213l-.631-1.378-.585 1.378zm1.314 2.557-1.313-2.555-1.092 2.557zm1.071-2.557-.209-.3-.753-1.078h1.928l-.963 1.378zm-3.658-7.7 2-2.611h-3.509l1.511 2.611zm2.305 0h-2.302l1.216 2.094 1.089-2.093zM33.843 36.8l1.606-2.093h-2.681l1.075 2.093zm0 0h-4.162l2.028 2.783 2.134-2.783zm-.078 5.606-1.325 2.559h3.188l-1.863-2.557zm-4.221 0h4.221l-2.057-2.823-2.165 2.823zm5.2 4.641h2.407l-1.519-2.084-.888 2.084zm5.851-6.765-.446-1.047h1.178l-.732 1.047zm.192-2.149-.638 1.1-.47-1.1zm0 0-.656-1.333h1.418l-.766 1.333zm3.584-1.333-1.407 2.739-1.415-2.739zm-1.407 2.739 1.485 2.866h-2.955l.705-1.378.765-1.488zm-.727-1.406-.7 1.532-.211-.431-.54-1.1zm-.7 1.532.666 1.362h-1.29l.624-1.362zm-.942.617.318.746h-.843l.521-.746zm.9 2.124h-1.217l.631-1.378.585 1.378zm-1.314 2.557 1.316-2.557 1.092 2.557zm-1.071-6.83h.568l-.571-1.333-.568 1.333h.568zm0 2.895.143-.249.894-1.544h-2.078l1.038 1.793zm0 3.935 1.171-2.557h-2.345l.9 1.973.267.584zm3.659-10.256-2-2.611h3.514l-1.511 2.611zm-2.306 0h2.306l-1.22 2.093-1.089-2.092zm3.908 2.093-1.606-2.093h2.681L44.371 36.8zm0 0h4.162l-2.028 2.783-2.134-2.783zm.078 5.606 1.325 2.557h-3.188l1.863-2.557zm4.221 0h-4.221l2.057-2.823 2.165 2.823zm-5.2 4.641h-2.403l1.519-2.084.888 2.084zM39.107 32.1h1.656l-1.656-2.159-1.656 2.159h1.656zm0 2.611h1.353L39.107 32.1l-1.353 2.611h1.353zm0 2.093h1.024l-.618-1.263-.406-.83-1.024 2.089h1.024zm0 10.246.276-.538.794-1.545h-2.141l1.071 2.084zm0 2.69 1.96-2.689h-3.92l1.96 2.689z" transform="translate(-28.107 -28.839)" style="fill:#fff;fill-rule:evenodd"/>
    </g>
</svg>
