<svg xmlns="http://www.w3.org/2000/svg" width="26" height="37" viewBox="0 0 26 37">
    <defs>
        <style>
            .cls-1{fill:#4d0baf}
        </style>
    </defs>
    <g id="Group_25822" data-name="Group 25822" transform="translate(-830.998 -1260.9)">
        <path id="Path_76969" data-name="Path 76969" class="cls-1" d="M1.12-1.6h3.59v-6.952L7.164-1.6h3L12.6-8.5v6.9h3.59v-12.5h-4.32L8.7-5.982 5.46-14.1H1.12zm17.124 0h3.59v-4.9h3.809v-2.637h-3.81v-2.2H27V-14.1h-8.756z" transform="translate(830 1275)"/>
        <path id="Exclusion_2" data-name="Exclusion 2" class="cls-1" d="M23.4 21.468H2.6A2.647 2.647 0 0 1 0 18.783V2.685A2.647 2.647 0 0 1 2.6 0h20.8A2.645 2.645 0 0 1 26 2.685v16.1a2.645 2.645 0 0 1-2.6 2.683zM6.579 12.827v3.118A1.535 1.535 0 0 0 8.088 17.5h10.573a1.535 1.535 0 0 0 1.508-1.558v-3.115h-5.288a.768.768 0 0 1-.754.778h-1.513a.768.768 0 0 1-.754-.778zm6.034-2.34h1.513a.768.768 0 0 1 .754.778v.778h4.534a1.537 1.537 0 0 0 1.513-1.557V8.147a1.539 1.539 0 0 0-1.513-1.562h-3.02a3.149 3.149 0 0 0-.887-2.2 2.962 2.962 0 0 0-2.138-.914 3.074 3.074 0 0 0-3.021 3.118H7.326a1.539 1.539 0 0 0-1.513 1.558v2.34a1.537 1.537 0 0 0 1.513 1.557h4.534v-.778a.768.768 0 0 1 .754-.779zm2.267-3.9h-3.02a1.511 1.511 0 1 1 3.021 0z" transform="translate(830.998 1276.432)"/>
    </g>
</svg>
