<svg xmlns="http://www.w3.org/2000/svg" width="40" height="40" viewBox="0 0 40 40">
    <g data-name="Group 26411" transform="translate(-386 -278)">
        <rect data-name="Rectangle 6453" width="40" height="40" rx="16" transform="translate(386 278)" style="fill:#fff"/>
        <path data-name="Path 51959" d="M0 0h24v24H0z" style="fill:none" transform="translate(394 286)"/>
        <path data-name="Path 51960" d="M12.067 12.067a4.034 4.034 0 1 0-4.033-4.033 4.033 4.033 0 0 0 4.033 4.033zm0 2.017C9.375 14.084 4 15.436 4 18.118v1.008a1.011 1.011 0 0 0 1.008 1.008h14.118a1.011 1.011 0 0 0 1.008-1.008v-1.008c.001-2.682-5.374-4.034-8.067-4.034z" transform="translate(393.933 285.933)" style="fill:#ff453a"/>
    </g>
</svg>
