<svg xmlns="http://www.w3.org/2000/svg" width="40" height="40" viewBox="0 0 40 40">
    <defs>
        <style>
            .cls-1{fill:#0074bd}.cls-2{fill:#ea2d2e}
        </style>
    </defs>
    <g id="Group_25235" data-name="Group 25235" transform="translate(-945 -385)">
        <g id="java" transform="translate(957 391)">
            <path id="Path_76744" data-name="Path 76744" class="cls-1" d="M47.441 60.694s-.759.465.541.622a10.817 10.817 0 0 0 4.115-.183 7.085 7.085 0 0 0 1.094.562c-3.891 1.755-8.806-.102-5.75-1.001zm-.476-2.294s-.851.664.45.806a15.263 15.263 0 0 0 5.311-.268 2.335 2.335 0 0 0 .817.525c-4.704 1.451-9.943.116-6.578-1.063z" transform="translate(-42.099 -44.777)"/>
            <path id="Path_76745" data-name="Path 76745" class="cls-2" d="M64.987 24.611a1.533 1.533 0 0 1-.265 2.209s2.564-1.323 1.386-2.981c-1.1-1.545-1.943-2.313 2.622-4.96 0 0-7.165 1.789-3.743 5.732z" transform="translate(-56.128 -14.604)"/>
            <path id="Path_76746" data-name="Path 76746" class="cls-1" d="M45.9 54.38s.576.488-.635.865c-2.3.716-9.584.932-11.607.028-.727-.325.637-.776 1.065-.87a2.706 2.706 0 0 1 .7-.081c-.809-.585-5.227 1.149-2.244 1.646 8.133 1.354 14.826-.61 12.721-1.588zm-8.524-6.361s-3.7.9-1.311 1.232a27.107 27.107 0 0 0 4.9-.055c1.533-.132 3.072-.415 3.072-.415a6.485 6.485 0 0 0-.931.512c-3.762 1.016-11.027.543-8.936-.5a6.841 6.841 0 0 1 3.201-.774zm6.644 3.814c3.824-2.04 2.056-4 .822-3.737a2.846 2.846 0 0 0-.437.121.7.7 0 0 1 .327-.259c2.441-.881 4.319 2.6-.787 3.978a.345.345 0 0 0 .071-.103z" transform="translate(-31.704 -36.765)"/>
            <path id="Path_76747" data-name="Path 76747" class="cls-2" d="M57.433 1.313s2.175 2.176-2.063 5.521c-3.4 2.684-.775 4.214 0 5.963-1.984-1.79-3.439-3.366-2.463-4.832 1.433-2.152 5.4-3.2 4.527-6.651z" transform="translate(-47.367 -1.313)"/>
            <path id="Path_76748" data-name="Path 76748" class="cls-1" d="M46.55 81.078c3.769.241 9.558-.134 9.695-1.917 0 0-.263.676-3.115 1.212a30.974 30.974 0 0 1-9.539.147s.482.399 2.959.558z" transform="translate(-40.761 -60.556)"/>
            <path id="Path_76749" data-name="Path 76749" class="cls-2" d="M45.623 94.665h-.112V94.6h.3v.064H45.7v.321h-.078zm.6.016-.111.3h-.051l-.11-.3v.3h-.074V94.6h.108l.1.272.1-.272h.115v.385h-.072zm-10.489 3.6a1.65 1.65 0 0 1-1.042.481.674.674 0 0 1-.723-.751c0-.5.272-.866 1.362-.866h.4v1.136zm.957 1.107v-3.426c0-.876-.487-1.454-1.661-1.454a4.293 4.293 0 0 0-1.774.395l.141.607a4.032 4.032 0 0 1 1.37-.279c.676 0 .967.279.967.857v.433H35.4c-1.643 0-2.384.654-2.384 1.636a1.235 1.235 0 0 0 1.408 1.328 2.1 2.1 0 0 0 1.445-.617l.075.52h.751zm3.193 0h-1.192L37.256 94.6H38.3l.892 2.945.2.885a18.836 18.836 0 0 0 .929-3.829h1.009a19.812 19.812 0 0 1-1.445 4.792zm4.578-1.107a1.656 1.656 0 0 1-1.043.481.673.673 0 0 1-.723-.751c0-.5.273-.866 1.362-.866h.4v1.136zm.957 1.107v-3.426c0-.876-.489-1.454-1.661-1.454a4.292 4.292 0 0 0-1.774.395l.141.607a4.036 4.036 0 0 1 1.375-.28c.676 0 .967.279.967.857v.433h-.338c-1.643 0-2.384.654-2.384 1.636a1.234 1.234 0 0 0 1.408 1.328 2.1 2.1 0 0 0 1.446-.617l.075.52h.751zm-13.457.814a2.514 2.514 0 0 1-1.2.914l-.472-.571a2.005 2.005 0 0 0 .828-.8 3.149 3.149 0 0 0 .179-1.388v-5.466h1.023v5.4a3.183 3.183 0 0 1-.356 1.909z" transform="translate(-30.296 -71.117)"/>
        </g>
        <path id="Rectangle_6291" data-name="Rectangle 6291" transform="translate(945 385)" style="fill:none" d="M0 0h40v40H0z"/>
    </g>
</svg>
