<svg xmlns="http://www.w3.org/2000/svg" width="13.197" height="13.197" viewBox="0 0 13.197 13.197">
    <g style="opacity:.3">
        <path data-name="Path 19379" d="M0 0h13.2v13.2H0z" style="fill:transparent"/>
        <path data-name="Path 19380" d="M10.7 3.357h-.963a2.407 2.407 0 0 0-4.812 0h-.963A.951.951 0 0 0 3 4.3v5.655a.955.955 0 0 0 .962.943H10.7a.955.955 0 0 0 .962-.943V4.3a.955.955 0 0 0-.962-.943zM7.331 1.943a1.427 1.427 0 0 1 1.443 1.414H5.887a1.427 1.427 0 0 1 1.444-1.414zm0 4.713A2.383 2.383 0 0 1 4.925 4.3h.962a1.444 1.444 0 0 0 2.887 0h.962a2.383 2.383 0 0 1-2.405 2.356z" transform="translate(-.733 .65)" style="fill:#26205d"/>
    </g>
</svg>
