<svg xmlns="http://www.w3.org/2000/svg" width="24" height="24" viewBox="0 0 24 24">
    <path data-name="Path 19379" d="M0 0h24v24H0z" style="fill:transparent"/>
    <path data-name="Path 19380" d="M17.222 5.353h-1.778a4.445 4.445 0 0 0-8.889 0H4.778a1.757 1.757 0 0 0-1.769 1.741L3 17.542a1.765 1.765 0 0 0 1.778 1.741h12.444A1.765 1.765 0 0 0 19 17.542V7.094a1.765 1.765 0 0 0-1.778-1.741zM11 2.741a2.636 2.636 0 0 1 2.667 2.612H8.333A2.636 2.636 0 0 1 11 2.741zm0 8.706a4.4 4.4 0 0 1-4.444-4.353h1.777a2.667 2.667 0 0 0 5.333 0h1.778A4.4 4.4 0 0 1 11 11.447z" transform="translate(1 1.859)" style="fill:none;stroke:#ff6000"/>
</svg>
