<svg xmlns="http://www.w3.org/2000/svg" width="49.524" height="65" viewBox="0 0 49.524 65">
    <path data-name="Path 76963" d="M47.333 22.667h-3.1v-6.19a15.476 15.476 0 0 0-30.952 0v6.19h-3.1A6.209 6.209 0 0 0 4 28.857V59.81A6.209 6.209 0 0 0 10.19 66h37.143a6.209 6.209 0 0 0 6.19-6.19V28.857a6.209 6.209 0 0 0-6.19-6.19zM28.762 50.524a6.19 6.19 0 1 1 6.19-6.19 6.209 6.209 0 0 1-6.19 6.19zm9.6-27.857H19.167v-6.19a9.6 9.6 0 0 1 19.19 0z" transform="translate(-4 -1)" style="fill:#02b5b5"/>
</svg>
