<svg id="Group_27986" data-name="Group 27986" xmlns="http://www.w3.org/2000/svg" xmlns:xlink="http://www.w3.org/1999/xlink" width="662" height="329" viewBox="0 0 662 329">
  <defs>
    <clipPath id="clip-path">
      <rect id="Rectangle_6911" data-name="Rectangle 6911" width="662" height="329" rx="20" fill="#fff"/>
    </clipPath>
    <linearGradient id="linear-gradient" x1="0.5" x2="0.5" y2="1" gradientUnits="objectBoundingBox">
      <stop offset="0" stop-color="#c0f786"/>
      <stop offset="1" stop-color="#11b9c8"/>
    </linearGradient>
    <linearGradient id="linear-gradient-3" x1="1" y1="0.053" x2="-0.182" y2="0.544" gradientUnits="objectBoundingBox">
      <stop offset="0" stop-color="#8a5bfe"/>
      <stop offset="1" stop-color="#31ba95"/>
    </linearGradient>
    <filter id="Path_77597" x="475.339" y="156.22" width="173.36" height="132.279" filterUnits="userSpaceOnUse">
      <feOffset dy="3" input="SourceAlpha"/>
      <feGaussianBlur stdDeviation="16" result="blur"/>
      <feFlood flood-opacity="0.078"/>
      <feComposite operator="in" in2="blur"/>
      <feComposite in="SourceGraphic"/>
    </filter>
  </defs>
  <g id="Mask_Group_14471" data-name="Mask Group 14471" clip-path="url(#clip-path)">
    <g id="Group_25592" data-name="Group 25592" transform="translate(521.155 178.979)">
      <rect id="Rectangle_6480" data-name="Rectangle 6480" width="209.307" height="171.042" rx="16" transform="translate(35.369)" opacity="0.5" fill="url(#linear-gradient)"/>
      <rect id="Rectangle_6481" data-name="Rectangle 6481" width="59.106" height="87.111" rx="12" transform="translate(0 85.521)" opacity="0.5" fill="url(#linear-gradient)"/>
    </g>
  </g>
  <g id="Group_27730" data-name="Group 27730" transform="translate(523.339 201.22)">
    <g transform="matrix(1, 0, 0, 1, -523.34, -201.22)" filter="url(#Path_77597)">
      <path id="Path_77597-2" data-name="Path 77597" d="M167.665,117.217l48.629-.1c0-9.018,0,53.86,0,28.027l-48.63.1a3.507,3.507,0,0,1-3.507-3.507V120.724a3.507,3.507,0,0,1,3.507-3.507Zm48.629-.1h21.749a3.474,3.474,0,0,1,3.474,3.474v21.074a3.478,3.478,0,0,1-3.478,3.478h-6.332v5.629A1.732,1.732,0,0,1,228.752,152l-6.853-6.853h-5.605Zm6.881,15.289a1.76,1.76,0,0,0-.645,2.4,1.743,1.743,0,0,0,2.4.645l2.228-1.29v2.578a1.752,1.752,0,0,0,3.5,0v-2.578l2.229,1.29a1.755,1.755,0,0,0,1.752-3.041l-2.229-1.275,2.229-1.289a1.755,1.755,0,0,0-1.752-3.041l-2.229,1.29v-2.565a1.752,1.752,0,0,0-3.5,0v2.565l-2.228-1.289h0a1.755,1.755,0,1,0-1.752,3.041l2.228,1.289Zm-16.815,0a1.76,1.76,0,0,0-.644,2.4,1.743,1.743,0,0,0,2.4.645l2.228-1.29v2.578a1.752,1.752,0,0,0,3.5,0v-2.578l2.229,1.29a1.755,1.755,0,0,0,1.752-3.041l-2.229-1.275,2.229-1.289a1.755,1.755,0,0,0-1.752-3.041l-2.229,1.29v-2.565a1.752,1.752,0,0,0-3.5,0v2.565l-2.228-1.289h0a1.755,1.755,0,1,0-1.752,3.041l2.228,1.289ZM172.5,132.4a1.76,1.76,0,0,0-.644,2.4,1.743,1.743,0,0,0,2.4.645l2.228-1.29v2.578a1.752,1.752,0,0,0,3.5,0V134.15l2.229,1.29a1.755,1.755,0,0,0,1.752-3.041l-2.229-1.275,2.229-1.289a1.755,1.755,0,0,0-1.752-3.041l-2.229,1.29v-2.565a1.752,1.752,0,0,0-3.5,0v2.565l-2.228-1.289h0a1.755,1.755,0,1,0-1.752,3.041l2.228,1.289Z" transform="translate(359.18 84.99)" opacity="0.65" fill="url(#linear-gradient-3)"/>
    </g>
    <g id="Group_27729" data-name="Group 27729" transform="translate(7.51 7.55)">
      <path id="Subtraction_66" data-name="Subtraction 66" d="M40.239,14.711a1.755,1.755,0,0,1-1.752-1.752V10.383L36.262,11.67a1.77,1.77,0,0,1-.882.24,1.735,1.735,0,0,1-.453-.062,1.756,1.756,0,0,1-.417-3.219l2.226-1.273L34.51,6.066A1.739,1.739,0,0,1,33.688,5a1.754,1.754,0,0,1,2.572-1.977l2.227,1.289V1.752a1.752,1.752,0,0,1,3.5,0V4.314l2.229-1.289A1.754,1.754,0,1,1,45.97,6.066L43.744,7.355,45.97,8.629a1.776,1.776,0,0,1,.646,2.4,1.756,1.756,0,0,1-1.063.818,1.707,1.707,0,0,1-1.331-.178l-2.229-1.287v2.576A1.755,1.755,0,0,1,40.239,14.711Zm-16.815,0a1.755,1.755,0,0,1-1.752-1.752V10.383L19.446,11.67a1.771,1.771,0,0,1-.883.24,1.735,1.735,0,0,1-.453-.062,1.756,1.756,0,0,1-1.063-.818,1.773,1.773,0,0,1,.646-2.4l2.226-1.273L17.693,6.066a1.755,1.755,0,1,1,1.752-3.041l2.227,1.289V1.752a1.752,1.752,0,0,1,3.5,0V4.314l2.23-1.289a2.142,2.142,0,0,1,.2-.1l.025-.01a1.715,1.715,0,0,1,.655-.129,1.755,1.755,0,0,1,.872,3.277l-1.527.887-.7.4.7.4v0l1.527.875a1.776,1.776,0,0,1,.646,2.4,1.756,1.756,0,0,1-1.063.818,1.618,1.618,0,0,1-.453.063,1.71,1.71,0,0,1-.657-.133h0a1.3,1.3,0,0,1-.221-.107l-2.23-1.287v2.576A1.755,1.755,0,0,1,23.424,14.711Zm-16.815,0a1.755,1.755,0,0,1-1.753-1.752V10.383L2.63,11.67a1.77,1.77,0,0,1-.882.24,1.735,1.735,0,0,1-.453-.062,1.756,1.756,0,0,1-1.063-.818,1.773,1.773,0,0,1,.646-2.4L3.1,7.355.878,6.066a1.755,1.755,0,0,1,.874-3.277,1.772,1.772,0,0,1,.878.236L4.855,4.314V1.752a1.752,1.752,0,0,1,3.5,0V4.314l2.23-1.289a1.755,1.755,0,0,1,1.752,3.041L10.113,7.355l2.229,1.273a1.758,1.758,0,0,1-.422,3.219,1.705,1.705,0,0,1-1.33-.178L8.36,10.383v2.576A1.755,1.755,0,0,1,6.608,14.711Z" transform="translate(17)" fill="#fff" opacity="0.58"/>
      <path id="Subtraction_67" data-name="Subtraction 67" d="M40.239,14.711a1.755,1.755,0,0,1-1.752-1.752V10.383L36.262,11.67a1.77,1.77,0,0,1-.882.24,1.735,1.735,0,0,1-.453-.062,1.756,1.756,0,0,1-.417-3.219l2.226-1.273L34.51,6.066A1.739,1.739,0,0,1,33.688,5a1.754,1.754,0,0,1,2.572-1.977l2.227,1.289V1.752a1.752,1.752,0,0,1,3.5,0V4.314l2.229-1.289A1.754,1.754,0,1,1,45.97,6.066L43.744,7.355,45.97,8.629a1.776,1.776,0,0,1,.646,2.4,1.756,1.756,0,0,1-1.063.818,1.707,1.707,0,0,1-1.331-.178l-2.229-1.287v2.576A1.755,1.755,0,0,1,40.239,14.711Zm-16.815,0a1.755,1.755,0,0,1-1.752-1.752V10.383L19.446,11.67a1.771,1.771,0,0,1-.883.24,1.735,1.735,0,0,1-.453-.062,1.756,1.756,0,0,1-1.063-.818,1.773,1.773,0,0,1,.646-2.4l2.226-1.273L17.693,6.066a1.755,1.755,0,1,1,1.752-3.041l2.227,1.289V1.752a1.752,1.752,0,0,1,3.5,0V4.314l2.23-1.289a2.142,2.142,0,0,1,.2-.1l.025-.01a1.715,1.715,0,0,1,.655-.129,1.755,1.755,0,0,1,.872,3.277l-1.527.887-.7.4.7.4v0l1.527.875a1.776,1.776,0,0,1,.646,2.4,1.756,1.756,0,0,1-1.063.818,1.618,1.618,0,0,1-.453.063,1.71,1.71,0,0,1-.657-.133h0a1.3,1.3,0,0,1-.221-.107l-2.23-1.287v2.576A1.755,1.755,0,0,1,23.424,14.711Zm-16.815,0a1.755,1.755,0,0,1-1.753-1.752V10.383L2.63,11.67a1.77,1.77,0,0,1-.882.24,1.735,1.735,0,0,1-.453-.062,1.756,1.756,0,0,1-1.063-.818,1.773,1.773,0,0,1,.646-2.4L3.1,7.355.878,6.066a1.755,1.755,0,0,1,.874-3.277,1.772,1.772,0,0,1,.878.236L4.855,4.314V1.752a1.752,1.752,0,0,1,3.5,0V4.314l2.23-1.289a1.755,1.755,0,0,1,1.752,3.041L10.113,7.355l2.229,1.273a1.758,1.758,0,0,1-.422,3.219,1.705,1.705,0,0,1-1.33-.178L8.36,10.383v2.576A1.755,1.755,0,0,1,6.608,14.711Z" fill="#fff" opacity="0.58"/>
    </g>
  </g>
</svg>
