<svg xmlns="http://www.w3.org/2000/svg" width="40" height="40" viewBox="0 0 40 40">
    <g data-name="Group 25233">
        <path d="M35.933 10.188 24.806 3.836a2.435 2.435 0 0 0-2.323 0l-11.246 6.352a2.372 2.372 0 0 0-1.237 2V24.88a2.392 2.392 0 0 0 1.25 2.005l2.971 1.659a4.83 4.83 0 0 0 2.568.688c2.1 0 3.3-1.25 3.3-3.431V13.275c0-.177-.094-.44-.27-.44H18.4c-.18 0-.582.263-.582.44V25.8c0 .967-.889 1.928-2.551 1.111l-3.07-1.74a.342.342 0 0 1-.182-.293V12.191c0-.12.14-.24.248-.3l11.21-6.342a.4.4 0 0 1 .363 0l11.073 6.34c.106.063.069.179.069.3V24.88c0 .121.046.239-.059.3L23.8 31.522a.321.321 0 0 1-.318 0l-2.853-1.674a.279.279 0 0 0-.271-.021 7.488 7.488 0 0 1-1.685.755c-.183.063-.453.172.1.479l3.734 2.172a2.388 2.388 0 0 0 2.35 0l11.074-6.347A2.225 2.225 0 0 0 37 24.88V12.191a2.218 2.218 0 0 0-1.067-2zm-8.8 12.681c-2.959 0-3.611-.8-3.828-2.249-.025-.156-.16-.342-.321-.342h-1.443c-.179 0-.323.213-.323.389 0 1.852 1.024 4.1 5.918 4.1 3.543 0 5.574-1.353 5.574-3.749 0-2.375-1.632-3-5.067-3.445-3.473-.451-3.825-.679-3.825-1.479 0-.659.3-1.539 2.87-1.539 2.3 0 3.144.485 3.493 2.007a.317.317 0 0 0 .313.246h1.452a.335.335 0 0 0 .237-.1.318.318 0 0 0 .085-.243c-.225-2.622-2-3.844-5.58-3.844-3.187 0-5.089 1.323-5.089 3.542 0 2.406 1.892 3.071 4.951 3.368 3.66.353 3.945.879 3.945 1.587 0 1.229-1 1.753-3.358 1.753z" transform="translate(-3 1.459)" style="fill:#83cd29"/>
        <path data-name="Rectangle 6290" style="fill:none" d="M0 0h40v40H0z"/>
    </g>
</svg>
