<svg xmlns="http://www.w3.org/2000/svg" width="36" height="36" viewBox="0 0 36 36">
    <path data-name="Path 76973" d="M32.167 28.25H8.833v-3.5h23.334zm0-7H8.833v-3.5h23.334zm0-7H8.833v-3.5h23.334zM3 37l2.917-2.625L8.833 37l2.917-2.625L14.667 37l2.917-2.625L20.5 37l2.917-2.625L26.333 37l2.917-2.625L32.167 37l2.917-2.625L38 37V2l-2.917 2.625L32.167 2 29.25 4.625 26.333 2l-2.916 2.625L20.5 2l-2.917 2.625L14.667 2 11.75 4.625 8.833 2 5.917 4.625 3 2z" transform="translate(-2.5 -1.5)" style="fill:#af0b0b;stroke:#ae0b0b;stroke-linecap:round;stroke-linejoin:round"/>
</svg>
