<svg xmlns="http://www.w3.org/2000/svg" width="42" height="36" viewBox="0 0 42 36">
    <path data-name="Path 76967" d="M31.946 15.259 23.585 2.817A1.9 1.9 0 0 0 22 2.02a1.869 1.869 0 0 0-1.585.816l-8.361 12.423H2.909A1.909 1.909 0 0 0 1 17.156a1.588 1.588 0 0 0 .076.512l4.849 17.583a3.793 3.793 0 0 0 3.666 2.769h24.818a3.833 3.833 0 0 0 3.685-2.769l4.849-17.583.057-.512a1.909 1.909 0 0 0-1.909-1.9zm-15.674 0L22 6.914l5.727 8.346zM22 30.433a3.794 3.794 0 1 1 3.818-3.793A3.817 3.817 0 0 1 22 30.433z" transform="translate(-1 -2.02)" style="fill:#af0b72"/>
</svg>
