<svg xmlns="http://www.w3.org/2000/svg" width="40" height="40" viewBox="0 0 40 40">
    <path data-name="Path 76976" d="M35.556 22.222H4.444A4.458 4.458 0 0 0 0 26.667v8.889A4.458 4.458 0 0 0 4.444 40h31.112A4.458 4.458 0 0 0 40 35.556v-8.889a4.458 4.458 0 0 0-4.444-4.445zM8.889 35.556a4.444 4.444 0 1 1 4.444-4.444 4.458 4.458 0 0 1-4.444 4.444zM35.556 0H4.444A4.458 4.458 0 0 0 0 4.444v8.889a4.458 4.458 0 0 0 4.444 4.444h31.112A4.458 4.458 0 0 0 40 13.333V4.444A4.458 4.458 0 0 0 35.556 0zM8.889 13.333a4.444 4.444 0 1 1 4.444-4.444 4.458 4.458 0 0 1-4.444 4.444z" transform="rotate(180 20 20)" style="fill:#eb002e"/>
</svg>
