<svg xmlns="http://www.w3.org/2000/svg" width="128" height="138" viewBox="0 0 128 138">
    <defs>
        <filter id="a" x="0" y="0" width="128" height="138" filterUnits="userSpaceOnUse">
            <feOffset dy="3"/>
            <feGaussianBlur stdDeviation="16" result="blur"/>
            <feFlood flood-opacity=".078"/>
            <feComposite operator="in" in2="blur"/>
            <feComposite in="SourceGraphic"/>
        </filter>
    </defs>
    <g style="filter:url(#a)">
        <path data-name="Path 76940" d="M32 15h-2v-4a10 10 0 0 0-20 0v4H8a4.012 4.012 0 0 0-4 4v20a4.012 4.012 0 0 0 4 4h24a4.012 4.012 0 0 0 4-4V19a4.012 4.012 0 0 0-4-4zM20 33a4 4 0 1 1 4-4 4.012 4.012 0 0 1-4 4zm6.2-18H13.8v-4a6.2 6.2 0 0 1 12.4 0z" transform="translate(44 44)" style="fill:#02b5b5"/>
    </g>
</svg>
