<svg xmlns="http://www.w3.org/2000/svg" width="24" height="24" viewBox="0 0 24 24">
    <path data-name="Path 19350" d="M0 0h24v24H0z" style="fill:none"/>
    <path data-name="Path 19351" d="M12.455 10.843a3.349 3.349 0 0 0 3.273-3.422A3.349 3.349 0 0 0 12.455 4a3.349 3.349 0 0 0-3.273 3.422 3.349 3.349 0 0 0 3.273 3.421zM5.091 9.132V6.566H3.455v2.566H1v1.711h2.455v2.566h1.636v-2.566h2.454V9.132zm7.364 3.422c-2.185 0-6.545 1.146-6.545 3.422v1.711H19v-1.712c0-2.275-4.361-3.421-6.545-3.421z" transform="translate(1.999 1.157)" style="stroke:#ff6000;stroke-linecap:round;stroke-linejoin:round;fill:none"/>
</svg>
