<svg xmlns="http://www.w3.org/2000/svg" width="40" height="40" viewBox="0 0 40 40">
    <g data-name="Group 25231">
        <path data-name="Rectangle 6289" style="fill:none" d="M0 0h40v40H0z"/>
        <path d="M80.942 64a15.882 15.882 0 0 0-3.5.318c-3.1.556-3.656 1.669-3.656 3.735v2.782H81.1v.954H71.087a4.633 4.633 0 0 0-4.61 3.656 14.558 14.558 0 0 0 0 7.391c.556 2.225 1.828 3.735 3.894 3.735h2.543v-3.337a4.634 4.634 0 0 1 4.53-4.53h7.232a3.646 3.646 0 0 0 3.656-3.656v-6.995a4.068 4.068 0 0 0-3.656-3.735A19.764 19.764 0 0 0 80.942 64zm-3.974 2.225a1.359 1.359 0 0 1 1.351 1.431 1.34 1.34 0 0 1-1.351 1.351 1.393 1.393 0 0 1-1.351-1.351 1.41 1.41 0 0 1 1.351-1.431z" transform="translate(-61 -59)" style="fill:#5a9fd4" data-name="Group 25193"/>
        <path data-name="Path 76743" d="M14.942 0a15.882 15.882 0 0 0-3.5.318c-3.1.556-3.656 1.669-3.656 3.735v2.782H15.1v.954H5.087a4.633 4.633 0 0 0-4.61 3.656 14.558 14.558 0 0 0 0 7.391c.556 2.225 1.828 3.735 3.894 3.735h2.544v-3.337a4.634 4.634 0 0 1 4.53-4.53h7.232a3.646 3.646 0 0 0 3.656-3.656V4.053A4.068 4.068 0 0 0 18.677.318 19.764 19.764 0 0 0 14.942 0zm-3.974 2.225a1.359 1.359 0 0 1 1.351 1.431 1.34 1.34 0 0 1-1.351 1.351 1.393 1.393 0 0 1-1.351-1.351 1.41 1.41 0 0 1 1.351-1.431z" transform="rotate(180 17.5 17.5)" style="fill:#ffd43b"/>
    </g>
</svg>
