<svg xmlns="http://www.w3.org/2000/svg" width="50" height="50" viewBox="0 0 50 50">
    <path data-name="Path 53136" d="M44.444 27.778H5.556A5.572 5.572 0 0 0 0 33.333v11.111A5.572 5.572 0 0 0 5.556 50h38.888A5.572 5.572 0 0 0 50 44.444V33.333a5.572 5.572 0 0 0-5.556-5.555zM11.111 44.444a5.556 5.556 0 1 1 5.556-5.556 5.572 5.572 0 0 1-5.556 5.556zM44.444 0H5.556A5.572 5.572 0 0 0 0 5.556v11.111a5.572 5.572 0 0 0 5.556 5.556h38.888A5.572 5.572 0 0 0 50 16.667V5.556A5.572 5.572 0 0 0 44.444 0zM11.111 16.667a5.556 5.556 0 1 1 5.556-5.556 5.572 5.572 0 0 1-5.556 5.556z" style="fill:#eb002e"/>
</svg>
