<svg xmlns="http://www.w3.org/2000/svg" width="23" height="22" viewBox="0 0 23 22">
    <path data-name="Rectangle 6281" style="fill:none" d="M0 0h23v22H0z"/>
    <path data-name="Path 76741" d="m13.68 9.6-1.363-4.492a.924.924 0 0 0-1.771 0L9.173 9.6H5.047a.926.926 0 0 0-.538 1.678l3.375 2.411-1.325 4.271a.926.926 0 0 0 1.446 1.01l3.422-2.6 3.422 2.606a.926.926 0 0 0 1.446-1.011l-1.326-4.275 3.375-2.411a.925.925 0 0 0-.538-1.678H13.68z" transform="translate(-.12 -.756)" style="stroke:#ffa41c;fill:none"/>
</svg>
