<svg xmlns="http://www.w3.org/2000/svg" width="15.861" height="14.87" viewBox="0 0 15.861 14.87">
    <path data-name="Rectangle 6281" style="fill:none" d="M0 0h15.861v14.87H0z"/>
    <path data-name="Path 76741" d="M10.742 8.014 9.8 4.905a.64.64 0 0 0-1.227 0l-.952 3.109H4.762a.641.641 0 0 0-.372 1.163l2.338 1.67-.919 2.961a.642.642 0 0 0 1 .7l2.37-1.8 2.37 1.8a.642.642 0 0 0 1-.7l-.919-2.961 2.338-1.67A.641.641 0 0 0 13.6 8.02h-2.858z" transform="translate(-1.251 -2.114)" style="fill:#ffdf00"/>
</svg>
