<svg xmlns="http://www.w3.org/2000/svg" width="14" height="14" viewBox="0 0 14 14">
    <path data-name="Rectangle 5765" style="fill:none" d="M0 0h14v14H0z"/>
    <path data-name="Path 51958" d="M9.079 5.586a.574.574 0 0 0 0 .812l2.235 2.235H2.576A.578.578 0 0 0 2 9.209a.578.578 0 0 0 .576.576h8.744L9.085 12.02a.574.574 0 0 0 0 .812.574.574 0 0 0 .812 0l3.22-3.22a.574.574 0 0 0 0-.812L9.891 5.586a.574.574 0 0 0-.812 0z" transform="translate(.054 -2.225)" style="fill:#fff;stroke:#fff;stroke-width:.6px"/>
</svg>
